<svg width="25" height="25" viewBox="0 0 25 25" fill="none" xmlns="http://www.w3.org/2000/svg">
<path fill-rule="evenodd" clip-rule="evenodd" d="M9.55685 20.9616L2.32946 15.3155C0.806175 14.1256 0.53599 11.926 1.72598 10.4027C2.91598 8.87944 5.11552 8.60926 6.63881 9.79925L13.8662 15.4453C14.8603 15.4283 15.8664 15.7389 16.7109 16.3987C18.6694 17.9287 19.0168 20.7566 17.4868 22.7151C15.9568 24.6737 13.1288 25.021 11.1703 23.491C10.3258 22.8313 9.78089 21.9302 9.55685 20.9616ZM9.6728 18.5143C9.83095 18.0424 10.0707 17.589 10.3944 17.1746C10.7182 16.7601 11.1002 16.4178 11.5197 16.1501L5.40756 11.3753C4.75473 10.8653 3.81207 10.9811 3.30207 11.634C2.79207 12.2868 2.90786 13.2295 3.5607 13.7395L9.6728 18.5143Z" fill="url(#paint0_linear_2186_2516)"/>
<path fill-rule="evenodd" clip-rule="evenodd" d="M9.27371 8.05074C10.1182 8.71047 11.1244 9.02114 12.1184 9.00409L19.3458 14.6501C20.8691 15.8401 23.0686 15.5699 24.2586 14.0467C25.4486 12.5234 25.1784 10.3238 23.6552 9.13384L16.4278 3.48779C16.2038 2.51916 15.6588 1.61809 14.8143 0.958365C12.8558 -0.571627 10.0278 -0.224247 8.49782 1.73426C6.96782 3.69277 7.3152 6.52075 9.27371 8.05074ZM15.5902 7.27485C15.2664 7.68932 14.8845 8.03164 14.465 8.29928L20.5771 13.0741C21.2299 13.5841 22.1726 13.4683 22.6826 12.8154C23.1925 12.1626 23.0768 11.2199 22.4239 10.7099L16.3118 5.93515C16.1537 6.40696 15.914 6.86038 15.5902 7.27485Z" fill="url(#paint1_linear_2186_2516)"/>
<path d="M9.58152 7.65672C10.3325 8.24336 11.2259 8.51896 12.1095 8.50388L12.2865 8.50092L19.6536 14.2561C20.9593 15.2761 22.8447 15.0445 23.8646 13.7389C24.8846 12.4332 24.653 10.5479 23.3474 9.52788L15.9803 3.77267L15.9403 3.60017C15.7411 2.73916 15.2574 1.93902 14.5065 1.35239C12.7656 -0.00760637 10.2518 0.301176 8.89184 2.04207C7.53184 3.78296 7.84063 6.29673 9.58152 7.65672ZM14.1962 7.87743C14.5685 7.63992 14.9079 7.33607 15.1962 6.96704C15.4845 6.59801 15.6971 6.19513 15.8375 5.7765L16.0626 5.10599L22.7318 10.3159C23.6022 10.9959 23.7566 12.2528 23.0766 13.1233C22.3966 13.9937 21.1397 14.1481 20.2693 13.4681L13.6002 8.25816L14.1962 7.87743ZM11.4782 23.097C13.219 24.457 15.7328 24.1482 17.0928 22.4073C18.4528 20.6664 18.144 18.1527 16.4031 16.7927C15.6522 16.206 14.7588 15.9305 13.8752 15.9455L13.6981 15.9485L6.33099 10.1933C5.02532 9.17328 3.14 9.40486 2.12 10.7105C1.10001 12.0162 1.3316 13.9015 2.63727 14.9215L10.0044 20.6767L10.0444 20.8492C10.2436 21.7103 10.7272 22.5104 11.4782 23.097ZM3.25289 14.1335C2.38244 13.4535 2.22805 12.1966 2.90805 11.3262C3.58804 10.4557 4.84493 10.3013 5.71537 10.9813L12.3845 16.1912L11.7884 16.572C11.4162 16.8095 11.0768 17.1133 10.7885 17.4824C10.5002 17.8514 10.2875 18.2543 10.1472 18.6729L9.922 19.3434L3.25289 14.1335Z" stroke="white" stroke-opacity="0.2"/>
<defs>
<linearGradient id="paint0_linear_2186_2516" x1="-6.69209" y1="15.9524" x2="31.0202" y2="5.75353" gradientUnits="userSpaceOnUse">
<stop stop-color="#F5F1FF"/>
<stop offset="1" stop-color="#6633EE"/>
</linearGradient>
<linearGradient id="paint1_linear_2186_2516" x1="-6.69209" y1="15.9524" x2="31.0202" y2="5.75353" gradientUnits="userSpaceOnUse">
<stop stop-color="#F5F1FF"/>
<stop offset="1" stop-color="#6633EE"/>
</linearGradient>
</defs>
</svg>
