<svg width="23" height="23" viewBox="0 0 23 23" fill="none" xmlns="http://www.w3.org/2000/svg">
<path fill-rule="evenodd" clip-rule="evenodd" d="M20.5931 4.55476C16.8531 -0.232705 9.94029 -1.08186 5.15282 2.65812C0.365364 6.39811 -0.483786 13.311 3.25619 18.0984C6.99617 22.8859 13.909 23.735 18.6965 19.9951C23.484 16.2551 24.3331 9.34222 20.5931 4.55476ZM8.87466 7.82322L17.0469 7.32503L13.1067 10.4031L15.5564 13.5389C15.8598 13.9273 16.0115 14.1215 16.0134 14.2905C16.0151 14.4377 15.9518 14.5781 15.8404 14.6744C15.7126 14.7849 15.4666 14.7999 14.9746 14.8299L6.80237 15.3281L10.7426 12.25L8.29291 9.11424C7.98948 8.72583 7.83777 8.53162 7.83587 8.36262C7.83421 8.21544 7.8975 8.075 8.00886 7.97874C8.13672 7.86821 8.3827 7.85322 8.87466 7.82322Z" fill="url(#paint0_linear_2186_2518)"/>
<path d="M20.1991 4.86257C23.7691 9.43241 22.9585 16.0311 18.3887 19.601C13.8188 23.171 7.2202 22.3605 3.65022 17.7906C0.0802341 13.2208 0.890787 6.62213 5.46064 3.05215C10.0305 -0.517835 16.6291 0.292717 20.1991 4.86257ZM17.0164 6.82595L8.84376 7.32412C8.6079 7.33849 8.39613 7.35105 8.22925 7.37664C8.06789 7.4014 7.85652 7.45006 7.68199 7.60093C7.45938 7.79345 7.33258 8.07394 7.33589 8.36824C7.33848 8.59901 7.44254 8.78992 7.53091 8.92721C7.6223 9.06914 7.7533 9.23569 7.89871 9.42182L10.0408 12.1638L5.22632 15.9249L6.83291 15.8272L15.0056 15.3291C15.2414 15.3147 15.4532 15.3021 15.6201 15.2765C15.7814 15.2518 15.9928 15.2031 16.1673 15.0522C16.3899 14.8597 16.5167 14.5792 16.5134 14.2849C16.5108 14.0542 16.4068 13.8633 16.3184 13.726C16.227 13.584 16.096 13.4175 15.9506 13.2314L13.8086 10.4894L18.623 6.72831L17.0164 6.82595Z" stroke="white" stroke-opacity="0.19"/>
<defs>
<linearGradient id="paint0_linear_2186_2518" x1="13.0376" y1="2.95254" x2="25.4402" y2="28.0489" gradientUnits="userSpaceOnUse">
<stop stop-color="#FFB366"/>
<stop offset="0.489583" stop-color="#E9766F"/>
<stop offset="1" stop-color="#C04350"/>
</linearGradient>
</defs>
</svg>
