<svg width="368" height="368" viewBox="0 0 368 368" fill="none" xmlns="http://www.w3.org/2000/svg">
<g style="mix-blend-mode:plus-lighter" opacity="0.35" clip-path="url(#clip0_1_164)">
<mask id="mask0_1_164" style="mask-type:alpha" maskUnits="userSpaceOnUse" x="0" y="184" width="368" height="184">
<path d="M368 184C368 208.163 363.241 232.09 353.994 254.414C344.747 276.738 331.194 297.022 314.108 314.108C297.022 331.194 276.738 344.747 254.414 353.994C232.09 363.241 208.163 368 184 368C159.837 368 135.91 363.241 113.586 353.994C91.2623 344.747 70.9783 331.194 53.8923 314.108C36.8064 297.022 23.253 276.738 14.0062 254.414C4.7593 232.09 -2.11242e-06 208.163 0 184L184 184H368Z" fill="url(#paint0_linear_1_164)"/>
</mask>
<g mask="url(#mask0_1_164)">
<mask id="mask1_1_164" style="mask-type:alpha" maskUnits="userSpaceOnUse" x="0" y="184" width="368" height="184">
<mask id="path-2-inside-1_1_164" fill="white">
<path d="M368 184C368 208.163 363.241 232.09 353.994 254.414C344.747 276.738 331.194 297.022 314.108 314.108C297.022 331.194 276.738 344.747 254.414 353.994C232.09 363.241 208.163 368 184 368C159.837 368 135.91 363.241 113.586 353.994C91.2623 344.747 70.9783 331.194 53.8923 314.108C36.8064 297.022 23.253 276.738 14.0062 254.414C4.7593 232.09 -2.11242e-06 208.163 0 184L184 184H368Z"/>
</mask>
<path d="M368 184C368 208.163 363.241 232.09 353.994 254.414C344.747 276.738 331.194 297.022 314.108 314.108C297.022 331.194 276.738 344.747 254.414 353.994C232.09 363.241 208.163 368 184 368C159.837 368 135.91 363.241 113.586 353.994C91.2623 344.747 70.9783 331.194 53.8923 314.108C36.8064 297.022 23.253 276.738 14.0062 254.414C4.7593 232.09 -2.11242e-06 208.163 0 184L184 184H368Z" fill="url(#paint1_radial_1_164)"/>
<path d="M368 184C368 208.163 363.241 232.09 353.994 254.414C344.747 276.738 331.194 297.022 314.108 314.108C297.022 331.194 276.738 344.747 254.414 353.994C232.09 363.241 208.163 368 184 368C159.837 368 135.91 363.241 113.586 353.994C91.2623 344.747 70.9783 331.194 53.8923 314.108C36.8064 297.022 23.253 276.738 14.0062 254.414C4.7593 232.09 -2.11242e-06 208.163 0 184L184 184H368Z" fill="url(#paint2_radial_1_164)"/>
<path d="M368 184C368 208.163 363.241 232.09 353.994 254.414C344.747 276.738 331.194 297.022 314.108 314.108C297.022 331.194 276.738 344.747 254.414 353.994C232.09 363.241 208.163 368 184 368C159.837 368 135.91 363.241 113.586 353.994C91.2623 344.747 70.9783 331.194 53.8923 314.108C36.8064 297.022 23.253 276.738 14.0062 254.414C4.7593 232.09 -2.11242e-06 208.163 0 184L184 184H368Z" stroke="black" stroke-width="2" mask="url(#path-2-inside-1_1_164)"/>
</mask>
<g mask="url(#mask1_1_164)">
<path d="M149.424 360.705L149.354 360.601L150.888 352.548L150.992 352.478L150.923 352.373L150.818 352.443L148.238 351.955L148.169 351.851L148.395 350.648L148.5 350.578L155.176 351.851L155.245 351.955L155.019 353.158L154.914 353.228L152.335 352.739L152.265 352.635L152.16 352.705L152.23 352.809L151.219 358.126L151.114 358.195L151.184 358.3L151.289 358.23L153.171 358.596L153.241 358.701L153.014 359.903L152.91 359.973L151.027 359.607L150.958 359.503L150.853 359.572L150.923 359.677L150.696 360.88L150.592 360.949L149.389 360.723L149.424 360.705Z" fill="#ACA0E4"/>
<path d="M137.675 356.609L137.605 356.504L139.244 349.898L139.348 349.829L140.533 350.125L140.603 350.23L139.645 354.134L139.54 354.204L139.61 354.308L139.714 354.256L140.9 354.552L140.969 354.657L140.673 355.842L140.568 355.912L139.383 355.616L139.313 355.511L139.209 355.581L139.278 355.685L138.982 356.871L138.878 356.94L137.692 356.644L137.675 356.609ZM138.686 358.282L138.616 358.178L138.912 356.993L139.017 356.923L142.921 357.882L142.974 357.986L142.677 359.171L142.573 359.241L138.668 358.282H138.686ZM140.69 350.16L140.621 350.055L140.917 348.87L141.022 348.818L144.926 349.776L144.996 349.881L144.699 351.066L144.595 351.136L140.69 350.177V350.16ZM141.039 354.57L140.969 354.465L141.266 353.28L141.37 353.21L142.555 353.506L142.625 353.611L142.329 354.796L142.224 354.866L141.039 354.57ZM143.078 357.934L143.009 357.829L143.967 353.925L144.072 353.855L144.002 353.75L143.898 353.82L142.712 353.524L142.643 353.419L142.939 352.234L143.043 352.164L144.229 352.461L144.298 352.565L144.403 352.495L144.333 352.391L144.63 351.206L144.734 351.136L145.92 351.432L145.989 351.537L144.351 358.143L144.246 358.213L143.061 357.916L143.078 357.934Z" fill="#ACA0E4"/>
<path d="M128.489 353.872L128.437 353.768L130.424 347.266L130.529 347.214L131.697 347.58L131.749 347.684L130.581 351.519L130.476 351.571L130.529 351.676L130.633 351.624L131.801 351.99L131.853 352.094L131.487 353.262L131.383 353.315L130.215 352.949L130.163 352.844L130.058 352.896L130.11 353.001L129.744 354.169L129.64 354.221L128.472 353.855L128.489 353.872ZM129.413 355.615L129.361 355.511L129.727 354.343L129.832 354.291L133.666 355.459L133.719 355.563L133.352 356.731L133.248 356.783L129.413 355.615ZM131.871 347.615L131.819 347.51L132.185 346.342L132.289 346.29L136.124 347.458L136.176 347.562L135.81 348.73L135.706 348.783L131.871 347.615ZM131.975 352.025L131.923 351.92L132.289 350.752L132.394 350.7L133.562 351.066L133.614 351.171L133.248 352.338L133.143 352.391L131.975 352.025ZM133.823 355.511L133.771 355.406L134.939 351.571L135.043 351.519L134.991 351.415L134.886 351.467L133.719 351.101L133.666 350.996L134.032 349.828L134.137 349.776L135.305 350.142L135.357 350.247L135.462 350.194L135.409 350.09L135.775 348.922L135.88 348.87L137.048 349.236L137.1 349.34L135.113 355.842L135.008 355.894L133.841 355.528L133.823 355.511Z" fill="#ACA0E4"/>
<path d="M119.478 350.648L119.426 350.543L121.762 344.146L121.866 344.094L123.017 344.512L123.069 344.617L121.692 348.382L121.587 348.434L121.64 348.539L121.744 348.486L122.895 348.905L122.947 349.009L122.528 350.16L122.424 350.212L121.273 349.794L121.221 349.689L121.117 349.741L121.169 349.846L120.751 350.996L120.646 351.049L119.496 350.63L119.478 350.648ZM120.297 352.443L120.245 352.339L120.663 351.188L120.768 351.136L124.533 352.513L124.585 352.617L124.167 353.768L124.062 353.82L120.297 352.443ZM123.051 348.992L122.999 348.887L123.417 347.737L123.522 347.685L124.672 348.103L124.725 348.208L124.306 349.358L124.202 349.41L123.051 348.992ZM123.173 344.582L123.121 344.477L123.539 343.327L123.644 343.275L127.409 344.652L127.461 344.756L127.043 345.907L126.938 345.959L123.173 344.582ZM124.707 352.565L124.655 352.461L126.032 348.696L126.137 348.643L126.084 348.539L125.98 348.591L124.829 348.173L124.777 348.068L125.195 346.918L125.3 346.865L126.45 347.284L126.503 347.388L126.607 347.336L126.555 347.231L126.973 346.081L127.078 346.029L128.228 346.447L128.281 346.552L125.945 352.949L125.84 353.001L124.69 352.583L124.707 352.565Z" fill="#ACA0E4"/>
<path d="M112.732 349.358L112.697 349.253L115.922 341.723L116.026 341.671L115.974 341.566L115.869 341.619L113.464 340.59L113.412 340.486L113.9 339.353L114.004 339.318L120.262 342.002L120.314 342.107L119.826 343.24L119.722 343.292L117.316 342.264L117.264 342.159L117.159 342.211L117.212 342.316L115.085 347.284L114.98 347.336L115.033 347.441L115.137 347.388L116.898 348.155L116.95 348.26L116.462 349.393L116.357 349.445L114.597 348.678L114.545 348.573L114.44 348.626L114.475 348.73L113.987 349.863L113.882 349.916L112.749 349.428L112.732 349.358Z" fill="#ACA0E4"/>
<path d="M95.4762 340.765L95.4413 340.643L99.4678 333.496L99.5898 333.461L99.555 333.339L99.4329 333.374L97.1495 332.084L97.1147 331.962L97.7073 330.899L97.8293 330.864L103.756 334.211L103.791 334.333L103.181 335.396L103.058 335.431L100.775 334.141L100.74 334.019L100.618 334.054L100.653 334.159L98.0036 338.882L97.8816 338.917L97.9165 339.039L98.0385 339.004L99.7118 339.945L99.7467 340.067L99.1366 341.131L99.032 341.166L97.3587 340.224L97.3238 340.102L97.2018 340.137L97.2367 340.259L96.644 341.322L96.522 341.357L95.4588 340.747L95.4762 340.765Z" fill="#ACA0E4"/>
<path d="M87.2491 335.797V335.675L91.6242 328.755H91.7462L91.7113 328.616H91.5893L89.3756 327.239V327.117L90.0031 326.088H90.1252L95.8598 329.714V329.836L95.2323 330.864H95.1103L92.8966 329.487V329.365L92.7572 329.383V329.505L89.8811 334.071H89.7591L89.7765 334.211H89.8986L91.5196 335.222V335.344L90.8921 336.372H90.7701L89.149 335.361V335.239L89.0096 335.257V335.379L88.3821 336.407H88.2601L87.2317 335.78L87.2491 335.797Z" fill="#ACA0E4"/>
<path d="M79.2822 330.393V330.271L84.0233 323.596H84.1453L84.1279 323.456H84.0059L81.8794 321.957V321.835L82.5766 320.842H82.6986L88.2415 324.781V324.903L87.5443 325.896H87.4223L85.2958 324.397V324.275L85.1563 324.293V324.415L82.0362 328.825H81.9142L81.9317 328.964H82.0537L83.6224 330.062V330.184L82.9252 331.178H82.8032L81.2344 330.08V329.958L81.095 329.975V330.097L80.3978 331.091H80.2758L79.2822 330.393Z" fill="#ACA0E4"/>
<path d="M70.3053 321.73V321.608L74.541 316.292H74.663L75.6216 317.042V317.164L73.1291 320.301H73.0071V320.441H73.1291L74.0878 321.19V321.312L73.3382 322.271H73.2162L72.2576 321.521V321.399H72.1181V321.521L71.3686 322.48H71.2466L70.2879 321.73H70.3053ZM70.5319 323.7V323.578L71.2814 322.619H71.4035L74.541 325.112V325.234L73.7914 326.193H73.6694L70.5319 323.7ZM74.2272 321.295V321.173L74.9767 320.214H75.0987L76.0574 320.964V321.086L75.3079 322.044H75.1859L74.2272 321.295ZM74.663 325.217V325.095L77.1555 321.957H77.2775V321.818H77.1555L76.1969 321.068V320.946L76.9464 319.987H77.0684L78.0271 320.737V320.859H78.1665V320.737L78.916 319.778H79.038L79.9967 320.528V320.65L75.7611 325.966H75.6391L74.6804 325.217H74.663ZM75.7437 317.146V317.024L76.4932 316.066H76.6152L79.7527 318.558V318.68L79.0032 319.639H78.8812L75.7437 317.146Z" fill="#ACA0E4"/>
<path d="M64.293 318.349V318.227L69.7314 312.091H69.8534V311.969H69.7314L67.7791 310.226V310.104L68.5809 309.181H68.703L73.7927 313.695V313.817L72.9909 314.741H72.8689L70.9166 312.998V312.876H70.7946V312.998L67.2039 317.042H67.0819V317.164H67.2039L68.6507 318.436V318.558L67.8489 319.482H67.7268L66.2801 318.21V318.088H66.1581V318.21L65.3563 319.133H65.2343L64.3105 318.332L64.293 318.349Z" fill="#ACA0E4"/>
<path d="M56.3103 308.797V308.675L61.1037 303.847H61.2257L62.0972 304.718V304.84L59.2735 307.699H59.1515V307.821H59.2735L60.145 308.692V308.814L59.2735 309.686H59.1515L58.28 308.814V308.692H58.1579V308.814L57.2864 309.686H57.1644L56.2929 308.814L56.3103 308.797ZM56.3277 310.767V310.645L57.1993 309.773H57.3213L60.1799 312.597V312.719L59.3084 313.59H59.1863L56.3277 310.767ZM60.267 308.779V308.657L61.1386 307.786H61.2606L62.1321 308.657V308.779L61.2606 309.651H61.1386L60.267 308.779ZM60.2845 312.719V312.597L63.1082 309.738H63.2302V309.616H63.1082L62.2367 308.762V308.64L63.1082 307.769H63.2302L64.1018 308.64V308.762H64.2238V308.64L65.0953 307.769H65.2173L66.0888 308.64V308.762L61.2954 313.608H61.1734L60.3019 312.736L60.2845 312.719ZM62.2193 304.823V304.701L63.0908 303.829H63.2128L66.0714 306.653V306.775L65.1999 307.647H65.0779L62.2193 304.823Z" fill="#ACA0E4"/>
<path d="M50.6973 304.805V304.683L56.7805 299.175H56.9025V299.071H56.7805L55.02 297.119V296.996L55.9264 296.177H56.0484L60.6152 301.215V301.337L59.7089 302.156H59.5868L57.8264 300.204V300.082H57.7218V300.204L53.7127 303.847H53.5907V303.951H53.7127L55.0026 305.381V305.503L54.0962 306.322H53.9742L52.6843 304.893V304.771H52.5798V304.893L51.6734 305.712H51.5514L50.7321 304.805H50.6973Z" fill="#ACA0E4"/>
<path d="M43.5324 296.369V296.247L44.4911 295.48H44.6131L47.158 298.6V298.722L46.1993 299.489H46.0773L43.5324 296.369ZM43.7241 294.4V294.278L49.0056 289.99H49.1276L49.8946 290.948V291.07L46.7745 293.615H46.6525V293.72H46.7745L47.5414 294.678V294.8L46.5828 295.567H46.4607L45.6938 294.609V294.487H45.5892V294.609L44.6305 295.393H44.5085L43.7241 294.434V294.4ZM47.2625 298.722V298.6L50.3826 296.055H50.5046V295.951H50.3826L49.6157 294.992V294.87L50.5743 294.086H50.6964L51.4633 295.044V295.166H51.5679V295.044L52.5266 294.278H52.6486L53.433 295.236V295.358L48.1515 299.664H48.0295L47.2625 298.705V298.722ZM47.6634 294.8V294.678L48.6221 293.911H48.7441L49.5285 294.87V294.992L48.5698 295.759H48.4478L47.6634 294.8ZM50.0166 291.088V290.966L50.9752 290.181H51.0973L53.6421 293.301V293.423L52.6834 294.19H52.5614L50.0166 291.07V291.088Z" fill="#ACA0E4"/>
<path d="M32.4127 280.734V280.612L33.4585 279.95H33.5805L35.7768 283.349V283.471L34.7309 284.133H34.6089L32.4127 280.734ZM32.8136 278.817V278.695L38.5482 274.982H38.6702L39.3326 276.028V276.15L35.9336 278.346H35.8116L35.7942 278.433H35.9162L36.5786 279.479V279.601L35.5327 280.263H35.4107L34.7484 279.218V279.096L34.6612 279.078V279.2L33.6154 279.862H33.4934L32.831 278.817H32.8136ZM35.8639 283.488V283.366L39.2629 281.17H39.3849L39.4023 281.083H39.2803L38.6179 280.037V279.915L39.6638 279.252H39.7858L40.4481 280.298V280.42L40.5353 280.438V280.316L41.5811 279.653H41.7031L42.3655 280.699V280.821L36.6309 284.534H36.5088L35.8465 283.488H35.8639ZM36.6657 279.636V279.514L37.7115 278.852H37.8336L38.4959 279.897V280.019L37.4501 280.682H37.3281L36.6657 279.636ZM39.4197 276.185V276.063L40.4656 275.4H40.5876L42.7838 278.799V278.921L41.738 279.584H41.616L39.4197 276.202V276.185Z" fill="#ACA0E4"/>
<path d="M28.1415 273.657L28.1764 273.535L35.288 269.439L35.41 269.474L35.4449 269.352L35.3229 269.317L34.0156 267.051L34.0505 266.929L35.1137 266.319L35.2357 266.354L38.6347 272.245L38.5998 272.367L37.5366 272.978L37.4146 272.943L36.1073 270.677L36.1421 270.555L36.0201 270.52L35.9853 270.642L31.2964 273.344L31.1744 273.309L31.1396 273.431L31.2616 273.466L32.2203 275.139L32.1854 275.261L31.1221 275.871L31.0001 275.836L30.0414 274.163L30.0763 274.041L29.9543 274.006L29.9194 274.128L28.8562 274.738L28.7342 274.703L28.1241 273.64L28.1415 273.657Z" fill="#ACA0E4"/>
<path d="M22.9655 263.948L23.0003 263.844L24.0984 263.286L24.203 263.321L26.0158 266.894L25.9809 266.999L24.8828 267.556L24.7782 267.522L22.9655 263.948ZM23.5755 262.066L23.6104 261.961L29.6762 258.876L29.7808 258.911L30.3386 260.009L30.3037 260.114L26.7304 261.926L26.6259 261.892L26.591 261.996L26.6956 262.031L27.2534 263.129L27.2185 263.234L26.1204 263.791L26.0158 263.757L25.458 262.659L25.4929 262.554L25.3883 262.519L25.3534 262.624L24.2553 263.181L24.1507 263.147L23.593 262.048L23.5755 262.066ZM26.103 267.051L26.1378 266.946L29.7111 265.134L29.8157 265.169L29.8505 265.064L29.7459 265.029L29.1882 263.931L29.223 263.826L30.3211 263.269L30.4257 263.303L30.9835 264.402L30.9486 264.506L31.0532 264.541L31.0881 264.436L32.1862 263.879L32.2908 263.914L32.8486 265.012L32.8137 265.116L26.7479 268.184L26.6433 268.149L26.0855 267.051H26.103ZM27.3231 263.286L27.3579 263.181L28.4561 262.624L28.5607 262.659L29.1184 263.757L29.0836 263.861L27.9854 264.419L27.8634 264.384L27.3057 263.286H27.3231ZM30.4257 260.166L30.4606 260.044L31.5587 259.486L31.6633 259.521L33.4761 263.094L33.4412 263.216L32.3431 263.774L32.2385 263.739L30.4257 260.166Z" fill="#ACA0E4"/>
<path d="M19.5131 256.471L19.5654 256.366L27.0605 253.054L27.1651 253.106L27.2 253.002L27.0954 252.967L26.0321 250.562L26.067 250.457L27.1826 249.969L27.2871 250.004L30.0237 256.227L29.9889 256.331L28.8733 256.819L28.7687 256.784L27.7055 254.379L27.7578 254.274L27.6532 254.239L27.6183 254.344L22.668 256.523L22.5635 256.488L22.5286 256.593L22.6332 256.627L23.4176 258.388L23.3827 258.493L22.2671 258.981L22.1626 258.946L21.3782 257.185L21.4131 257.081L21.3085 257.046L21.2736 257.15L20.1581 257.638L20.0535 257.604L19.5654 256.488L19.5131 256.471Z" fill="#ACA0E4"/>
<path d="M15.9059 247.581L15.9582 247.477L23.6276 244.583L23.7322 244.635L23.7845 244.531L23.6799 244.478L22.7561 242.021L22.8084 241.916L23.9588 241.48L24.0634 241.533L26.4688 247.895L26.4165 247.999L25.2661 248.435L25.1615 248.383L24.2377 245.925L24.29 245.821L24.1854 245.768L24.1331 245.873L19.0782 247.79L18.9737 247.738L18.9214 247.843L19.026 247.895L19.7057 249.69L19.6534 249.795L18.503 250.231L18.3985 250.178L17.7187 248.383L17.771 248.278L17.6664 248.226L17.6141 248.331L16.4637 248.766L16.3591 248.714L15.9233 247.564L15.9059 247.581Z" fill="#ACA0E4"/>
<path d="M10.1355 229.192L10.1878 229.087L18.1187 227.03L18.2232 227.083L18.293 226.978L18.1884 226.908L17.526 224.364L17.5783 224.259L18.7636 223.945L18.8682 223.997L20.5764 230.586L20.5241 230.691L19.3388 231.005L19.2342 230.952L18.5718 228.407L18.6416 228.303L18.537 228.233L18.4673 228.338L13.2381 229.697L13.1335 229.645L13.0812 229.75L13.1858 229.819L13.6739 231.684L13.6041 231.789L12.4189 232.103L12.3143 232.033L11.8262 230.168L11.896 230.063L11.7914 230.011L11.7391 230.116L10.5538 230.429L10.4492 230.377L10.1355 229.192Z" fill="#ACA0E4"/>
<path d="M7.74783 218.472L7.81756 218.367L9.02026 218.123L9.12485 218.193L9.92665 222.132L9.85693 222.237L8.65422 222.481L8.54964 222.411L7.74783 218.472ZM8.84596 216.816L8.91568 216.712L15.5916 215.369L15.6962 215.439L15.9402 216.642L15.8705 216.746L11.9312 217.548L11.8266 217.478L11.7569 217.583L11.8614 217.653L12.1055 218.855L12.0357 218.96L10.833 219.204L10.7285 219.134L10.4844 217.932L10.5541 217.827L10.4496 217.757L10.3798 217.862L9.17714 218.106L9.07255 218.036L8.82853 216.834L8.84596 216.816ZM9.94408 222.289L10.0138 222.185L13.9531 221.383L14.0577 221.453L14.1274 221.348L14.0228 221.278L13.7788 220.076L13.8485 219.971L15.0512 219.727L15.1558 219.797L15.3998 220.999L15.3301 221.104L15.4347 221.174L15.5044 221.069L16.7071 220.825L16.8117 220.895L17.0557 222.098L16.986 222.202L10.3101 223.544L10.2055 223.475L9.96151 222.272L9.94408 222.289ZM12.1229 218.995L12.1926 218.89L13.3953 218.646L13.4999 218.716L13.7439 219.919L13.6742 220.023L12.4715 220.267L12.3669 220.198L12.1229 218.995ZM15.9402 216.816L16.0099 216.712L17.2126 216.468L17.3172 216.537L18.119 220.477L18.0493 220.581L16.8466 220.825L16.742 220.755L15.9402 216.816Z" fill="#ACA0E4"/>
<path d="M6.19647 208.955L6.26619 208.868L7.48633 208.694L7.57348 208.763L8.14869 212.737L8.07897 212.825L6.85883 212.999L6.77168 212.929L6.19647 208.955ZM7.38175 207.369L7.45147 207.282L14.1797 206.306L14.2668 206.375L14.4411 207.595L14.3714 207.683L10.3972 208.258L10.3101 208.188L10.2404 208.275L10.3275 208.345L10.5018 209.565L10.4321 209.652L9.21196 209.827L9.1248 209.757L8.9505 208.537L9.02022 208.45L8.93307 208.38L8.86334 208.467L7.64321 208.641L7.55605 208.572L7.38175 207.351V207.369ZM8.18355 212.894L8.25328 212.807L12.2274 212.232L12.3146 212.302L12.3843 212.214L12.2972 212.145L12.1229 210.925L12.1926 210.837L13.4127 210.663L13.4999 210.733L13.6742 211.953L13.6045 212.04L13.6916 212.11L13.7613 212.023L14.9815 211.848L15.0686 211.918L15.2429 213.138L15.1732 213.225L8.44501 214.202L8.35786 214.132L8.18355 212.912V212.894ZM10.5367 209.722L10.6064 209.635L11.8265 209.46L11.9137 209.53L12.088 210.75L12.0183 210.837L10.7981 211.012L10.711 210.942L10.5367 209.722ZM14.476 207.735L14.5457 207.648L15.7658 207.473L15.853 207.543L16.4282 211.517L16.3585 211.604L15.1383 211.779L15.0512 211.709L14.476 207.735Z" fill="#ACA0E4"/>
<path d="M5.16852 199.351L5.23824 199.264L6.45838 199.159L6.54553 199.229L6.91157 203.22L6.84185 203.307L5.62171 203.412L5.53456 203.342L5.16852 199.351ZM6.44095 197.834L6.51067 197.747L13.2911 197.12L13.3783 197.189L13.4829 198.409L13.4132 198.497L9.42157 198.863L9.33442 198.793L9.26469 198.88L9.35185 198.95L9.45643 200.17L9.38671 200.257L8.16657 200.362L8.07942 200.292L7.97483 199.072L8.04456 198.985L7.9574 198.915L7.88768 199.002L6.66754 199.107L6.58039 199.037L6.47581 197.817L6.44095 197.834ZM6.94643 203.395L7.01615 203.307L11.0077 202.941L11.0949 203.011L11.1646 202.924L11.0775 202.854L10.9729 201.634L11.0426 201.547L12.2627 201.442L12.3499 201.512L12.4545 202.732L12.3848 202.819L12.4719 202.889L12.5416 202.802L13.7618 202.697L13.8489 202.767L13.9535 203.987L13.8838 204.074L7.10331 204.702L7.01615 204.632L6.91157 203.412L6.94643 203.395ZM9.47386 200.362L9.54358 200.275L10.7637 200.17L10.8509 200.24L10.9555 201.46L10.8857 201.547L9.6656 201.652L9.57844 201.582L9.47386 200.362ZM13.5003 198.584L13.57 198.497L14.7902 198.392L14.8773 198.462L15.2434 202.453L15.1736 202.541L13.9535 202.645L13.8664 202.575L13.5003 198.584Z" fill="#ACA0E4"/>
<path d="M4.71463 191.193L4.80178 191.106L12.9941 190.792L13.0813 190.879L13.1684 190.792L13.0813 190.705L12.9767 188.09L13.0639 188.003L14.284 187.951L14.3711 188.038L14.6326 194.836L14.5455 194.923L13.3253 194.976L13.2382 194.888L13.1336 192.274L13.2207 192.187L13.1336 192.1L13.0464 192.187L7.64296 192.396L7.55581 192.309L7.46866 192.396L7.55581 192.483L7.62553 194.4L7.53838 194.488L6.31824 194.54L6.23109 194.453L6.16136 192.535L6.24852 192.448L6.16136 192.361L6.07421 192.448L4.85407 192.5L4.76692 192.413L4.71463 191.193Z" fill="#ACA0E4"/>
<path d="M4.62778 181.572L4.71493 181.484L12.9073 181.624L12.9944 181.711L13.0816 181.624L12.9944 181.537L13.0293 178.922L13.1165 178.835H14.3366L14.4237 178.94L14.3192 185.737L14.232 185.825H13.0119L12.9247 185.72L12.9596 183.105L13.0467 183.018L12.9596 182.931L12.8724 183.018L7.46896 182.931L7.38181 182.844L7.29465 182.931L7.38181 183.018L7.34695 184.936L7.25979 185.023H6.03966L5.9525 184.918L5.98736 183.001L6.07452 182.914L5.98736 182.827L5.90021 182.914H4.6975L4.61035 182.809V181.589L4.62778 181.572Z" fill="#ACA0E4"/>
<path d="M354.633 184.587L354.546 184.674H353.326L353.238 184.604L353.169 180.595L353.256 180.508H354.476L354.563 180.578L354.633 184.587ZM361.553 180.299L361.466 180.386L357.457 180.456L357.369 180.369L357.282 180.456L357.369 180.543V181.763L357.3 181.85H356.08L355.992 181.781V180.56L356.062 180.473L355.975 180.386L355.888 180.473H354.668L354.581 180.404V179.183L354.65 179.096L361.448 178.992L361.535 179.079V180.299H361.553ZM361.64 185.877L361.553 185.964L354.755 186.068L354.668 185.981V184.761L354.737 184.674L358.746 184.604L358.834 184.691L358.921 184.604L358.834 184.517V183.297L358.903 183.21H360.123L360.211 183.28V184.5L360.141 184.587L360.228 184.674L360.315 184.587H361.535L361.623 184.657V185.877H361.64ZM358.799 183.14L358.712 183.227H357.491L357.404 183.158V181.937L357.474 181.85H358.694L358.781 181.92V183.14H358.799ZM363 184.465L362.912 184.552H361.692L361.605 184.482L361.535 180.473L361.623 180.386H362.843L362.93 180.456L363 184.465Z" fill="#ACA0E4"/>
<path d="M362.825 192.71L362.738 192.797L354.545 192.466L354.458 192.379L354.371 192.466L354.458 192.553L354.354 195.167L354.266 195.255L353.046 195.202L352.959 195.115L353.238 188.317L353.325 188.23L354.545 188.282L354.632 188.37L354.528 190.984L354.441 191.071L354.528 191.158L354.615 191.071L360.018 191.28L360.106 191.368L360.193 191.28L360.106 191.193L360.175 189.276L360.262 189.189L361.483 189.241L361.57 189.328L361.5 191.246L361.413 191.333L361.5 191.42L361.587 191.333L362.807 191.385L362.895 191.472L362.842 192.692L362.825 192.71Z" fill="#ACA0E4"/>
<path d="M353.693 202.924L353.605 202.994L352.385 202.872L352.316 202.785L352.682 198.793L352.769 198.723L353.989 198.845L354.059 198.933L353.693 202.924ZM360.49 204.963L360.403 205.033L353.623 204.406L353.553 204.319L353.675 203.098L353.762 203.029L357.754 203.395L357.824 203.482L357.911 203.412L357.841 203.325L357.963 202.105L358.05 202.035L359.27 202.157L359.34 202.244L359.218 203.464L359.131 203.534L359.201 203.621L359.288 203.552L360.508 203.674L360.578 203.761L360.456 204.981L360.49 204.963ZM361.013 199.403L360.926 199.473L356.935 199.107L356.865 199.02L356.778 199.089L356.848 199.177L356.725 200.397L356.638 200.466L355.418 200.344L355.348 200.257L355.47 199.037L355.558 198.967L355.488 198.88L355.401 198.95L354.181 198.828L354.111 198.741L354.233 197.521L354.32 197.451L361.101 198.078L361.17 198.166L361.048 199.386L361.013 199.403ZM357.98 201.931L357.893 202L356.673 201.878L356.603 201.791L356.725 200.571L356.813 200.501L358.033 200.623L358.103 200.71L357.98 201.931ZM362.007 203.708L361.92 203.778L360.7 203.656L360.63 203.569L360.996 199.577L361.083 199.508L362.303 199.63L362.373 199.717L362.007 203.708Z" fill="#ACA0E4"/>
<path d="M352.489 212.023L352.402 212.092L351.182 211.918L351.112 211.831L351.704 207.857L351.792 207.787L353.012 207.961L353.081 208.048L352.489 212.023ZM359.182 214.411L359.095 214.48L352.367 213.487L352.297 213.4L352.471 212.179L352.559 212.11L356.533 212.702L356.602 212.79L356.69 212.72L356.62 212.633L356.794 211.413L356.881 211.343L358.101 211.517L358.171 211.604L357.997 212.824L357.91 212.894L357.979 212.981L358.067 212.912L359.287 213.086L359.356 213.173L359.182 214.393V214.411ZM359.984 208.903L359.897 208.972L355.923 208.38L355.853 208.292L355.766 208.362L355.836 208.449L355.661 209.669L355.574 209.739L354.354 209.565L354.284 209.478L354.459 208.258L354.546 208.188L354.476 208.101L354.389 208.17L353.169 207.996L353.099 207.909L353.273 206.689L353.36 206.619L360.089 207.613L360.158 207.7L359.984 208.92V208.903ZM356.829 211.238L356.742 211.308L355.522 211.134L355.452 211.046L355.626 209.826L355.713 209.757L356.934 209.931L357.003 210.018L356.829 211.238ZM360.751 213.243L360.664 213.312L359.444 213.138L359.374 213.051L359.967 209.077L360.054 209.007L361.274 209.181L361.344 209.269L360.751 213.243Z" fill="#ACA0E4"/>
<path d="M359.27 221.313L359.165 221.383L351.13 219.744L351.06 219.64L350.956 219.709L351.025 219.814L350.502 222.376L350.398 222.446L349.195 222.202L349.125 222.097L350.485 215.422L350.59 215.352L351.792 215.596L351.862 215.7L351.339 218.263L351.235 218.332L351.304 218.437L351.409 218.367L356.708 219.448L356.777 219.553L356.882 219.483L356.812 219.378L357.196 217.496L357.3 217.426L358.503 217.67L358.573 217.775L358.189 219.657L358.085 219.727L358.154 219.831L358.259 219.762L359.462 220.006L359.531 220.11L359.287 221.313H359.27Z" fill="#ACA0E4"/>
<path d="M348.62 229.889L348.515 229.941L347.33 229.628L347.26 229.523L348.271 225.636L348.376 225.584L349.561 225.897L349.613 226.002L348.602 229.889H348.62ZM355.017 232.992L354.912 233.044L348.324 231.336L348.271 231.231L348.585 230.046L348.69 229.976L352.577 230.987L352.629 231.092L352.733 231.022L352.681 230.917L352.995 229.732L353.099 229.68L354.285 229.994L354.337 230.098L354.023 231.284L353.919 231.336L353.971 231.44L354.076 231.388L355.261 231.702L355.331 231.806L355.017 232.992ZM356.429 227.606L356.324 227.658L352.437 226.647L352.385 226.542L352.28 226.595L352.333 226.699L352.019 227.885L351.914 227.937L350.729 227.623L350.677 227.519L350.99 226.333L351.095 226.264L351.043 226.159L350.938 226.229L349.753 225.915L349.701 225.81L350.014 224.625L350.119 224.573L356.708 226.281L356.76 226.386L356.446 227.571L356.429 227.606ZM353.03 229.593L352.925 229.645L351.74 229.331L351.688 229.227L352.001 228.041L352.106 227.972L353.291 228.285L353.361 228.39L353.047 229.575L353.03 229.593ZM356.725 231.998L356.62 232.05L355.435 231.737L355.383 231.632L356.394 227.745L356.498 227.693L357.684 228.007L357.736 228.111L356.725 231.998Z" fill="#ACA0E4"/>
<path d="M345.953 238.709L345.848 238.761L344.681 238.395L344.628 238.291L345.848 234.473L345.953 234.421L347.121 234.787L347.173 234.892L345.953 238.709ZM352.176 242.16L352.071 242.212L345.587 240.138L345.535 240.034L345.901 238.866L346.005 238.813L349.84 240.034L349.892 240.138L349.997 240.086L349.945 239.981L350.311 238.813L350.415 238.761L351.583 239.127L351.635 239.232L351.269 240.4L351.165 240.452L351.217 240.556L351.322 240.504L352.489 240.87L352.542 240.975L352.176 242.143V242.16ZM353.866 236.844L353.762 236.896L349.927 235.676L349.875 235.571L349.77 235.624L349.823 235.728L349.457 236.896L349.352 236.948L348.184 236.582L348.132 236.478L348.498 235.31L348.602 235.258L348.55 235.153L348.446 235.205L347.278 234.839L347.225 234.735L347.591 233.567L347.696 233.515L354.18 235.589L354.233 235.693L353.866 236.861V236.844ZM350.363 238.657L350.258 238.709L349.091 238.343L349.038 238.238L349.404 237.07L349.509 237.018L350.677 237.384L350.729 237.489L350.363 238.657ZM353.936 241.254L353.832 241.306L352.664 240.94L352.611 240.835L353.832 237.018L353.936 236.966L355.104 237.332L355.156 237.436L353.936 241.271V241.254Z" fill="#ACA0E4"/>
<path d="M351.147 248.993L351.042 249.045L343.373 246.134L343.32 246.03L343.216 246.082L343.268 246.186L342.344 248.644L342.24 248.696L341.089 248.261L341.037 248.156L343.46 241.794L343.564 241.742L344.715 242.177L344.767 242.282L343.843 244.74L343.739 244.792L343.791 244.897L343.895 244.844L348.95 246.762L349.003 246.866L349.107 246.814L349.055 246.709L349.735 244.914L349.839 244.862L350.99 245.298L351.042 245.402L350.362 247.197L350.258 247.25L350.31 247.354L350.415 247.302L351.565 247.738L351.617 247.842L351.181 248.993H351.147Z" fill="#ACA0E4"/>
<path d="M343.302 266.545L343.198 266.58L335.894 262.868L335.86 262.763L335.738 262.798L335.772 262.902L334.587 265.238L334.483 265.273L333.384 264.715L333.35 264.611L336.435 258.545L336.539 258.51L337.638 259.068L337.672 259.172L336.487 261.508L336.383 261.543L336.417 261.647L336.522 261.613L341.35 264.07L341.385 264.175L341.49 264.14L341.455 264.035L342.326 262.327L342.431 262.292L343.529 262.85L343.564 262.955L342.692 264.663L342.588 264.698L342.623 264.802L342.727 264.767L343.825 265.325L343.86 265.43L343.302 266.528V266.545Z" fill="#ACA0E4"/>
<path d="M330.736 272.001L330.614 272.036L329.551 271.426L329.516 271.304L331.52 267.835L331.642 267.801L332.706 268.411L332.741 268.533L330.736 272.001ZM336.07 276.708L335.948 276.742L330.056 273.326L330.021 273.204L330.631 272.141L330.754 272.106L334.222 274.11L334.257 274.232L334.379 274.198L334.344 274.076L334.954 273.012L335.076 272.977L336.14 273.587L336.174 273.709L335.564 274.773L335.442 274.808L335.477 274.93L335.599 274.895L336.662 275.505L336.697 275.627L336.087 276.69L336.07 276.708ZM338.876 271.879L338.754 271.914L335.285 269.91L335.251 269.788L335.129 269.822L335.163 269.944L334.553 271.008L334.431 271.043L333.368 270.433L333.333 270.311L333.943 269.247L334.065 269.212L334.03 269.09L333.908 269.125L332.845 268.515L332.81 268.393L333.42 267.33L333.542 267.295L339.434 270.711L339.469 270.833L338.859 271.897L338.876 271.879ZM335.059 272.89L334.937 272.925L333.874 272.315L333.839 272.193L334.449 271.13L334.571 271.095L335.634 271.705L335.669 271.827L335.059 272.89ZM337.987 276.202L337.865 276.237L336.802 275.627L336.767 275.505L338.772 272.036L338.894 272.001L339.957 272.611L339.992 272.733L337.987 276.202Z" fill="#ACA0E4"/>
<path d="M333.613 283.174H333.491L326.623 278.712V278.59L326.484 278.607V278.729L325.072 280.926H324.95L323.921 280.281V280.159L327.617 274.459H327.739L328.767 275.104V275.226L327.355 277.422H327.233L327.251 277.562H327.373L331.904 280.49V280.612L332.044 280.595V280.473L333.072 278.869H333.194L334.223 279.514V279.636L333.194 281.239H333.072L333.09 281.379H333.212L334.24 282.024V282.146L333.595 283.174H333.613Z" fill="#ACA0E4"/>
<path d="M328.104 291.07H327.982L321.376 286.242V286.12L321.236 286.137V286.259L319.702 288.369H319.58L318.587 287.654V287.532L322.596 282.041H322.718L323.711 282.756V282.878L322.178 284.987H322.056L322.073 285.126H322.195L326.553 288.299V288.421L326.692 288.403V288.281L327.808 286.73H327.93L328.923 287.445V287.567L327.808 289.118H327.686L327.703 289.258H327.825L328.819 289.972V290.094L328.104 291.088V291.07Z" fill="#ACA0E4"/>
<path d="M315.886 305.904H315.764L309.698 300.396V300.274H309.576V300.396L307.815 302.33H307.693L306.787 301.511V301.389L311.371 296.352H311.493L312.4 297.171V297.293L310.639 299.228H310.517V299.35H310.639L314.631 302.993V303.115H314.753V302.993L316.042 301.564H316.165L317.071 302.383V302.505L315.781 303.934H315.659V304.056H315.781L316.687 304.875V304.997L315.868 305.904H315.886Z" fill="#ACA0E4"/>
<path d="M306.246 313.765H306.124L301.348 308.919V308.797L302.22 307.943H302.342L305.165 310.801V310.923H305.287V310.801L306.159 309.947H306.281L307.153 310.819V310.941L306.281 311.795H306.159V311.917H306.281L307.153 312.789V312.911L306.281 313.782L306.246 313.765ZM302.342 307.821H302.22L301.366 306.949V306.827L304.224 304.004H304.346L305.2 304.875V304.997L302.342 307.821ZM306.281 309.825H306.159L305.305 308.954V308.832L306.176 307.978H306.298L307.153 308.849V308.971L306.281 309.843V309.825ZM310.22 309.86H310.098L307.275 307.002V306.88H307.153V307.002L306.281 307.856H306.159L305.305 306.984V306.862L306.176 306.008H306.298V305.886H306.176L305.305 305.015V304.892L306.176 304.021H306.298L311.074 308.867V308.989L310.203 309.843L310.22 309.86ZM308.216 313.782H308.094L307.24 312.911V312.789L310.098 309.965H310.22L311.092 310.836V310.958L308.233 313.782H308.216Z" fill="#ACA0E4"/>
<path d="M302.15 319.36H302.028L296.59 313.225V313.103H296.485V313.225L294.516 314.968H294.394L293.574 314.044V313.922L298.664 309.407H298.786L299.605 310.331V310.453L297.636 312.196H297.514V312.301H297.636L301.226 316.362V316.484H301.331V316.362L302.778 315.09H302.9L303.719 316.013V316.135L302.272 317.408H302.15V317.512H302.272L303.092 318.436V318.558L302.168 319.377L302.15 319.36Z" fill="#ACA0E4"/>
<path d="M291.692 326.175H291.57L287.334 320.842V320.72L288.31 319.953H288.432L290.925 323.108V323.23H291.03V323.108L292.006 322.341H292.128L292.895 323.317V323.439L291.918 324.206H291.796V324.31H291.918L292.685 325.286V325.408L291.709 326.175H291.692ZM288.45 319.848H288.328L287.561 318.872V318.75L290.716 316.257H290.838L291.605 317.233V317.355L288.45 319.848ZM292.145 322.271H292.023L291.256 321.295V321.173L292.232 320.406H292.354L293.121 321.382V321.504L292.145 322.271ZM296.067 322.707H295.945L293.452 319.552V319.43H293.348V319.552L292.372 320.319H292.25L291.483 319.343V319.221L292.459 318.454H292.581V318.349H292.459L291.692 317.373V317.251L292.668 316.484H292.79L297.026 321.818V321.94L296.049 322.707H296.067ZM293.662 326.402H293.539L292.773 325.426V325.304L295.927 322.811H296.049L296.816 323.787V323.909L293.662 326.402Z" fill="#ACA0E4"/>
<path d="M283.987 331.753H283.865L279.926 326.193V326.071L280.937 325.356H281.059L283.377 328.65V328.772L283.482 328.79V328.668L284.493 327.953H284.615L285.33 328.964V329.086L284.319 329.801H284.197L284.179 329.905H284.301L285.016 330.916V331.038L284.005 331.753H283.987ZM281.076 325.269H280.954L280.24 324.258V324.136L283.534 321.818H283.656L284.371 322.829V322.951L281.076 325.286V325.269ZM284.632 327.866H284.51L283.796 326.855V326.733L284.807 326.018H284.929L285.643 327.029V327.151L284.632 327.866ZM288.537 328.528H288.415L286.079 325.234V325.112L285.974 325.095V325.217L284.963 325.931H284.841L284.127 324.92V324.798L285.138 324.084H285.26L285.277 323.979H285.155L284.441 322.968V322.846L285.452 322.131H285.574L289.513 327.692V327.814L288.502 328.528H288.537ZM285.922 332.084H285.8L285.085 331.073V330.951L288.38 328.633H288.502L289.217 329.644V329.766L285.922 332.102V332.084Z" fill="#ACA0E4"/>
<path d="M275.968 336.912H275.846L272.203 331.143V331.021L273.266 330.359H273.388L275.532 333.775V333.897L275.619 333.914L275.654 333.792L276.683 333.13H276.805L277.467 334.193V334.315L276.404 334.978H276.282L276.264 335.065H276.386L277.049 336.128V336.25L275.985 336.912H275.968ZM273.423 330.289H273.301L272.639 329.226L272.674 329.104L276.073 326.96H276.195L276.857 328.023V328.145L273.441 330.289H273.423ZM276.84 333.078H276.718L276.055 332.014V331.892L277.118 331.23H277.24L277.903 332.293V332.415L276.84 333.078ZM280.692 333.932H280.57L278.426 330.515V330.393L278.339 330.376V330.498L277.275 331.16H277.153L276.491 330.097L276.526 329.975L277.554 329.313H277.676L277.711 329.226H277.589L276.927 328.162V328.04L277.99 327.378H278.112L281.755 333.147L281.72 333.269L280.692 333.932ZM277.903 337.348H277.781L277.118 336.285L277.153 336.163L280.552 334.019L280.674 334.054L281.337 335.082V335.204L277.92 337.348H277.903Z" fill="#ACA0E4"/>
<path d="M270.757 341.532L270.635 341.497L266.626 334.35L266.661 334.228L266.539 334.193L266.504 334.315L264.221 335.605L264.116 335.57L263.524 334.507L263.558 334.385L269.502 331.056L269.624 331.091L270.217 332.154L270.182 332.276L267.899 333.566L267.777 333.531L267.742 333.653L267.846 333.688L270.496 338.411L270.461 338.533L270.583 338.568L270.618 338.446L272.291 337.505L272.413 337.54L273.006 338.603L272.971 338.725L271.298 339.666L271.176 339.632L271.141 339.754L271.263 339.788L271.855 340.852L271.821 340.974L270.757 341.566V341.532Z" fill="#ACA0E4"/>
<path d="M253.483 349.951L253.379 349.898L250.154 342.351L250.206 342.246L250.102 342.194L250.05 342.299L247.644 343.327L247.54 343.275L247.052 342.142L247.104 342.037L253.361 339.37L253.466 339.423L253.954 340.556L253.902 340.66L251.496 341.689L251.392 341.636L251.339 341.741L251.444 341.793L253.571 346.761L253.518 346.865L253.623 346.918L253.675 346.813L255.453 346.064L255.558 346.116L256.046 347.249L255.993 347.353L254.215 348.103L254.111 348.051L254.059 348.155L254.163 348.208L254.651 349.341L254.599 349.445L253.466 349.933L253.483 349.951Z" fill="#ACA0E4"/>
<path d="M241.404 353.106L241.299 353.053L238.981 346.656L239.033 346.552L240.184 346.133L240.288 346.186L241.665 349.968L241.613 350.073L241.717 350.125L241.77 350.02L242.92 349.602L243.025 349.654L243.443 350.805L243.391 350.909L242.24 351.328L242.136 351.275L242.083 351.38L242.188 351.432L242.606 352.583L242.554 352.687L241.404 353.106ZM240.34 346.064L240.236 346.011L239.817 344.861L239.87 344.756L243.652 343.379L243.757 343.432L244.175 344.582L244.123 344.687L240.34 346.064ZM243.077 349.532L242.972 349.48L242.554 348.33L242.606 348.225L243.757 347.807L243.861 347.859L244.28 349.009L244.227 349.114L243.077 349.532ZM243.199 353.925L243.094 353.872L242.676 352.722L242.728 352.617L246.511 351.24L246.615 351.293L247.034 352.443L246.981 352.548L243.199 353.925ZM246.65 351.188L246.546 351.136L245.169 347.353L245.221 347.249L245.116 347.197L245.064 347.301L243.914 347.719L243.809 347.667L243.391 346.517L243.443 346.412L244.593 345.994L244.698 346.046L244.75 345.942L244.646 345.889L244.227 344.739L244.28 344.634L245.43 344.216L245.535 344.268L247.853 350.665L247.801 350.77L246.65 351.188Z" fill="#ACA0E4"/>
<path d="M235.374 356.47L235.269 356.417L232.881 348.573L232.933 348.469L232.829 348.417L232.777 348.521L230.267 349.288L230.162 349.236L229.796 348.068L229.848 347.963L236.367 345.994L236.472 346.046L236.838 347.214L236.786 347.318L234.276 348.085L234.171 348.033L234.119 348.138L234.223 348.19L235.792 353.367L235.74 353.471L235.844 353.524L235.897 353.419L237.744 352.861L237.849 352.914L238.215 354.082L238.163 354.186L236.315 354.744L236.21 354.692L236.158 354.796L236.263 354.848L236.611 356.016L236.559 356.121L235.391 356.47H235.374Z" fill="#ACA0E4"/>
<path d="M223.05 358.3L222.945 358.23L221.324 351.624L221.394 351.519L222.579 351.223L222.684 351.293L223.642 355.197L223.573 355.302L223.677 355.371L223.747 355.267L224.932 354.97L225.037 355.04L225.333 356.225L225.263 356.33L224.078 356.626L223.973 356.557L223.904 356.661L224.008 356.731L224.305 357.916L224.235 358.021L223.05 358.317V358.3ZM222.736 351.188L222.631 351.118L222.335 349.933L222.405 349.828L226.309 348.87L226.414 348.939L226.71 350.125L226.64 350.229L222.736 351.188ZM224.74 359.311L224.636 359.241L224.339 358.056L224.409 357.951L228.314 356.992L228.418 357.062L228.715 358.247L228.645 358.352L224.74 359.311ZM225.089 354.918L224.984 354.848L224.688 353.663L224.758 353.559L225.943 353.262L226.048 353.332L226.344 354.517L226.274 354.622L225.089 354.918ZM228.47 356.958L228.366 356.888L227.407 352.983L227.477 352.879L227.372 352.809L227.303 352.914L226.117 353.21L226.013 353.14L225.716 351.955L225.786 351.85L226.971 351.554L227.076 351.624L227.146 351.519L227.041 351.449L226.745 350.264L226.815 350.16L228 349.863L228.104 349.933L229.725 356.539L229.656 356.644L228.47 356.94V356.958Z" fill="#ACA0E4"/>
<path d="M216.687 360.984L216.582 360.914L215.066 352.861L215.136 352.757L215.031 352.687L214.961 352.792L212.382 353.28L212.277 353.21L212.051 352.007L212.12 351.903L218.814 350.63L218.918 350.7L219.145 351.903L219.075 352.007L216.495 352.495L216.391 352.426L216.321 352.53L216.426 352.6L217.437 357.916L217.367 358.021L217.471 358.091L217.541 357.986L219.424 357.62L219.528 357.69L219.755 358.892L219.685 358.997L217.803 359.363L217.698 359.293L217.628 359.398L217.733 359.468L217.959 360.67L217.89 360.775L216.687 361.001V360.984Z" fill="#ACA0E4"/>
</g>
</g>
</g>
<g style="mix-blend-mode:overlay" clip-path="url(#clip1_1_164)">
<mask id="mask2_1_164" style="mask-type:alpha" maskUnits="userSpaceOnUse" x="1" y="20" width="368" height="184">
<path d="M369 204C369 179.837 364.241 155.91 354.994 133.586C345.747 111.262 332.194 90.9783 315.108 73.8923C298.022 56.8064 277.738 43.253 255.414 34.0062C233.09 24.7593 209.163 20 185 20C160.837 20 136.91 24.7593 114.586 34.0062C92.2623 43.253 71.9783 56.8064 54.8923 73.8924C37.8064 90.9783 24.253 111.262 15.0062 133.586C5.7593 155.91 0.999998 179.837 1 204L185 204H369Z" fill="url(#paint3_linear_1_164)"/>
</mask>
<g mask="url(#mask2_1_164)">
<mask id="mask3_1_164" style="mask-type:alpha" maskUnits="userSpaceOnUse" x="1" y="20" width="368" height="184">
<path d="M369 204C369 179.837 364.241 155.91 354.994 133.586C345.747 111.262 332.194 90.9783 315.108 73.8923C298.022 56.8064 277.738 43.253 255.414 34.0062C233.09 24.7593 209.163 20 185 20C160.837 20 136.91 24.7593 114.586 34.0062C92.2623 43.253 71.9783 56.8064 54.8923 73.8924C37.8064 90.9783 24.253 111.262 15.0062 133.586C5.7593 155.91 0.999998 179.837 1 204L185 204H369Z" fill="url(#paint4_radial_1_164)"/>
</mask>
<g mask="url(#mask3_1_164)">
<path d="M10.7179 163.092L10.8225 163.022L12.0252 163.301L12.0949 163.405L11.1885 167.31L11.084 167.379L9.88125 167.101L9.81152 166.996L10.7179 163.092ZM11.1188 167.484L11.2234 167.414L15.1278 168.321L15.1976 168.425L15.3021 168.356L15.2324 168.251L15.5113 167.048L15.6159 166.979L16.8186 167.257L16.8883 167.362L16.6094 168.565L16.5048 168.634L16.5746 168.739L16.6792 168.669L17.8819 168.948L17.9516 169.053L17.6727 170.255L17.5681 170.325L10.9445 168.791L10.8748 168.687L11.1537 167.484H11.1188ZM12.3912 162.063L12.4958 161.993L19.1194 163.527L19.1892 163.632L18.9103 164.835L18.8057 164.904L14.9012 163.998L14.8315 163.893L14.7269 163.963L14.7967 164.068L14.5178 165.27L14.4132 165.34L13.2105 165.061L13.1408 164.957L13.4196 163.754L13.5242 163.684L13.4545 163.58L13.3499 163.649L12.1472 163.37L12.0775 163.266L12.3564 162.063H12.3912ZM14.4829 165.41L14.5875 165.34L15.7902 165.619L15.8599 165.724L15.581 166.926L15.4764 166.996L14.2737 166.717L14.204 166.613L14.4829 165.41ZM18.858 164.991L18.9626 164.922L20.1653 165.201L20.235 165.305L19.3286 169.21L19.224 169.279L18.0213 169L17.9516 168.896L18.858 164.991Z" fill="white"/>
<path d="M12.8611 155.143L12.9656 155.091L20.8442 157.374L20.8965 157.479L21.0011 157.427L20.9488 157.322L21.6809 154.812L21.7855 154.76L22.9708 155.108L23.0231 155.213L21.1231 161.749L21.0185 161.802L19.8333 161.453L19.781 161.348L20.5131 158.838L20.6176 158.786L20.5654 158.682L20.4608 158.734L15.2665 157.217L15.2142 157.113L15.1096 157.165L15.1619 157.27L14.6215 159.117L14.517 159.17L13.3317 158.821L13.2794 158.716L13.8197 156.869L13.9243 156.816L13.872 156.712L13.7674 156.764L12.5822 156.416L12.5299 156.311L12.8785 155.126L12.8611 155.143Z" fill="white"/>
<path d="M16.2959 144.702L16.4004 144.65L17.5508 145.051L17.6031 145.155L16.2784 148.938L16.1738 148.99L15.0234 148.589L14.9711 148.485L16.2959 144.702ZM16.2261 149.095L16.3307 149.042L20.1131 150.367L20.1654 150.472L20.27 150.419L20.2177 150.315L20.6186 149.147L20.7232 149.095L21.8911 149.496L21.9433 149.6L21.5424 150.751L21.4379 150.803L21.4902 150.907L21.5947 150.855L22.7451 151.256L22.7974 151.361L22.3965 152.511L22.292 152.563L15.8775 150.315L15.8252 150.21L16.2261 149.042V149.095ZM18.0738 143.831L18.1783 143.778L24.5928 146.027L24.6451 146.131L24.2442 147.282L24.1396 147.334L20.3572 146.009L20.3049 145.905L20.2003 145.957L20.2526 146.062L19.8517 147.212L19.7471 147.264L18.5793 146.864L18.527 146.759L18.9279 145.591L19.0324 145.539L18.9802 145.434L18.8756 145.487L17.7252 145.086L17.6729 144.981L18.0738 143.831ZM19.782 147.386L19.8865 147.334L21.037 147.735L21.0892 147.84L20.6883 148.99L20.5838 149.042L19.4333 148.641L19.3811 148.537L19.782 147.369V147.386ZM24.1919 147.456L24.2965 147.404L25.4469 147.805L25.4992 147.909L24.1745 151.692L24.0699 151.744L22.9195 151.343L22.8672 151.239L24.1919 147.456Z" fill="white"/>
<path d="M19.8153 135.708L19.9199 135.656L21.0529 136.126L21.1052 136.231L19.5713 139.944L19.4667 139.996L18.3337 139.525L18.2814 139.421L19.8153 135.708ZM19.519 140.118L19.6236 140.066L23.3363 141.6L23.3886 141.704L23.4932 141.652L23.4409 141.547L23.9115 140.414L24.0161 140.362L25.1491 140.833L25.2014 140.937L24.7307 142.07L24.6261 142.123L24.6784 142.227L24.783 142.175L25.916 142.645L25.9683 142.75L25.4977 143.883L25.3931 143.935L19.1007 141.338L19.0484 141.234L19.519 140.101V140.118ZM21.6455 134.959L21.7501 134.906L28.0425 137.503L28.0948 137.608L27.6242 138.741L27.5196 138.793L23.8069 137.259L23.7546 137.155L23.65 137.207L23.7023 137.312L23.2317 138.445L23.1271 138.497L21.9941 138.026L21.9418 137.922L22.4125 136.789L22.5171 136.737L22.4648 136.632L22.3602 136.684L21.2272 136.214L21.1749 136.109L21.6455 134.976V134.959ZM23.162 138.602L23.2666 138.549L24.3996 139.02L24.4518 139.125L23.9812 140.257L23.8766 140.31L22.7437 139.839L22.6914 139.735L23.162 138.602ZM27.5545 138.898L27.6591 138.846L28.792 139.316L28.8443 139.421L27.3105 143.134L27.2059 143.186L26.0729 142.715L26.0206 142.611L27.5545 138.898Z" fill="white"/>
<path d="M23.8249 126.975L23.9294 126.941L25.045 127.464L25.0799 127.568L23.3542 131.194L23.2497 131.229L22.1341 130.706L22.0992 130.601L23.8249 126.975ZM23.2845 131.351L23.3891 131.316L27.0147 133.041L27.0495 133.146L27.1541 133.111L27.1192 133.006L27.6422 131.891L27.7467 131.856L28.8623 132.379L28.8972 132.484L28.3742 133.599L28.2697 133.634L28.3045 133.739L28.4091 133.704L29.5247 134.227L29.5595 134.331L29.0366 135.447L28.932 135.482L22.7965 132.553L22.7616 132.449L23.2845 131.333V131.351ZM25.6725 126.313L25.7771 126.278L31.9126 129.207L31.9475 129.311L31.4246 130.427L31.32 130.462L27.6944 128.736L27.6596 128.631L27.555 128.666L27.5899 128.771L27.0669 129.886L26.9624 129.921L25.8468 129.398L25.8119 129.294L26.3349 128.178L26.4394 128.143L26.4046 128.039L26.3 128.074L25.1844 127.551L25.1496 127.446L25.6725 126.331V126.313ZM26.9972 130.043L27.1018 130.008L28.2174 130.531L28.2522 130.636L27.7293 131.751L27.6247 131.786L26.5092 131.263L26.4743 131.159L26.9972 130.043ZM31.3723 130.584L31.4769 130.549L32.5924 131.072L32.6273 131.176L30.9017 134.802L30.7971 134.837L29.6815 134.314L29.6467 134.209L31.3723 130.584Z" fill="white"/>
<path d="M32.4696 111.375L32.5916 111.34L39.5638 115.646L39.5987 115.768L39.7207 115.733L39.6858 115.611L41.0628 113.38L41.1849 113.345L42.2307 113.99L42.2655 114.112L38.6923 119.899L38.5703 119.933L37.5244 119.289L37.4896 119.167L38.8666 116.935L38.9886 116.901L38.9537 116.779L38.8317 116.813L34.2301 113.972L34.1952 113.85L34.0732 113.885L34.1081 114.007L33.0971 115.646L32.9751 115.68L31.9292 115.035L31.8944 114.913L32.9053 113.275L33.0274 113.24L32.9925 113.118L32.8705 113.153L31.8247 112.508L31.7898 112.386L32.4347 111.34L32.4696 111.375Z" fill="white"/>
<path d="M37.7867 103.322H37.9088L44.6544 107.976V108.098L44.7938 108.081V107.959L46.258 105.797H46.38L47.391 106.477V106.599L43.5388 112.194H43.4168L42.4058 111.515V111.393L43.87 109.231H43.992L43.9746 109.092H43.8526L39.4078 106.024V105.902L39.2683 105.919V106.041L38.1876 107.628H38.0656L37.0547 106.948V106.826L38.1353 105.24H38.2574L38.2399 105.1H38.1179L37.1069 104.42V104.298L37.7867 103.287V103.322Z" fill="white"/>
<path d="M44.3586 94.485H44.4806L45.4567 95.2171V95.3391L43.0164 98.5114H42.8944L41.9183 97.7793V97.6573L44.3586 94.485ZM42.8944 98.6509H43.0164L46.1888 101.091V101.213H46.3282V101.091L47.0603 100.115H47.1823L48.1584 100.847V100.969L47.4264 101.945H47.3043V102.085H47.4264L48.4025 102.817V102.939L47.6704 103.915H47.5484L42.1798 99.7664V99.6444L42.9118 98.6683L42.8944 98.6509ZM46.3108 94.2409H46.4328L51.8014 98.3894V98.5114L51.0693 99.4875H50.9473L47.775 97.0473V96.9252H47.6355V97.0473L46.9034 98.0234H46.7814L45.8053 97.2913V97.1693L46.5374 96.1932H46.6594V96.0537H46.5374L45.5613 95.3216V95.1996L46.2934 94.2235L46.3108 94.2409ZM46.7989 98.1454H46.9209L47.897 98.8775V98.9995L47.1649 99.9756H47.0429L46.0668 99.2435V99.1215L46.7989 98.1454ZM50.9648 99.6095H51.0868L52.0629 100.342V100.464L49.6226 103.636H49.5006L48.5245 102.904V102.782L50.9648 99.6095Z" fill="white"/>
<path d="M49.6231 88.1751H49.7451L55.9504 93.5262V93.6482H56.0724V93.5262L57.7806 91.5392H57.9026L58.8264 92.341V92.463L54.3817 97.605H54.2596L53.3358 96.8032V96.6812L55.044 94.6941H55.166V94.5721H55.044L50.9478 91.0337V90.9117H50.8258V91.0337L49.5708 92.4804H49.4488L48.525 91.6786V91.5566L49.78 90.1099H49.902V89.9878H49.78L48.8562 89.186V89.064L49.658 88.1402L49.6231 88.1751Z" fill="white"/>
<path d="M57.0823 80.1047H57.2043L58.0933 80.9588V81.0808L55.3044 83.9743H55.1824L54.2934 83.1202V82.9982L57.0823 80.1047ZM55.1824 84.0789H55.3044L58.1979 86.8678V86.9898H58.3199V86.8678L59.174 85.9788H59.296L60.1849 86.8329V86.9549L59.3309 87.8439H59.2088V87.9659H59.3309L60.2198 88.82V88.942L59.3657 89.831H59.2437L54.3457 85.1073V84.9853L55.1998 84.0963L55.1824 84.0789ZM59.052 80.0699H59.174L64.072 84.7935V84.9156L63.2179 85.8045H63.0958L60.2024 83.0156V82.8936H60.0804V83.0156L59.2263 83.9046H59.1043L58.2153 83.0505V82.9285L59.0694 82.0395H59.1914V81.9175H59.0694L58.1804 81.0634V80.9414L59.0345 80.0524L59.052 80.0699ZM59.1217 84.0092H59.2437L60.1327 84.8633V84.9853L59.2786 85.8742H59.1565L58.2676 85.0201V84.8981L59.1217 84.0092ZM63.1133 85.9091H63.2353L64.1242 86.7632V86.8852L61.3354 89.7787H61.2133L60.3244 88.9246V88.8026L63.1133 85.9091Z" fill="white"/>
<path d="M62.9742 74.3874H63.0962L68.6914 80.3835V80.5056H68.8134V80.3835L70.7308 78.5882H70.8528L71.6895 79.4946V79.6166L66.7043 84.2531H66.5823L65.7456 83.3467V83.2247L67.663 81.4294H67.785V81.3074H67.663L63.9677 77.3506V77.2286H63.8457V77.3506L62.4338 78.6579H62.3118L61.4752 77.7515V77.6295L62.887 76.3222H63.009V76.2002H62.887L62.0504 75.2938V75.1718L62.9568 74.3351L62.9742 74.3874Z" fill="white"/>
<path d="M77.7896 62.0641H77.9116L82.827 68.6354V68.7574H82.9316V68.6354L85.0407 67.0666H85.1627L85.8948 68.0602V68.1822L80.439 72.261H80.317L79.5849 71.2674V71.1454L81.694 69.5766H81.8161V69.4721H81.694L78.452 65.1319V65.0098H78.3474V65.1319L76.7961 66.2823H76.674L75.942 65.2887V65.1667L77.4933 64.0163H77.6153V63.9117H77.4933L76.7612 62.9182V62.7962L77.7547 62.0641H77.7896Z" fill="white"/>
<path d="M84.099 59.2403H84.221L86.4521 62.6044V62.7264L86.5393 62.7439V62.6218L87.5851 61.9421H87.7071L88.3869 62.9879V63.1099L87.3411 63.7897H87.2191L87.2016 63.8768H87.3236L88.0034 64.9227V65.0447L86.9576 65.7245H86.8356L83.0532 60.0421V59.9201L84.099 59.2403ZM86.8007 55.7542H86.9227L87.6025 56.8V56.9221L84.2384 59.1532H84.1164L83.4366 58.1073V57.9853L86.8007 55.7542ZM87.9686 60.0073H88.0906L88.7704 61.0531V61.1751L87.7245 61.8549H87.6025L86.9227 60.8091V60.6871L87.9686 60.0073ZM88.7355 56.1377H88.8575L92.64 61.82V61.9421L91.5941 62.6218H91.4721L89.241 59.2577V59.1357L89.1539 59.1183V59.2403L88.108 59.9201H87.986L87.3062 58.8743V58.7523L88.352 58.0725H88.4741L88.4915 57.9853H88.3695L87.6897 56.9395V56.8175L88.7355 56.1377ZM91.4547 62.709H91.5767L92.2565 63.7548V63.8768L88.8924 66.108H88.7704L88.0906 65.0621V64.9401L91.4547 62.709Z" fill="white"/>
<path d="M92.1008 54.0459L92.2228 54.0808L94.2796 57.532L94.2448 57.6541L94.3668 57.6889L94.4016 57.5669L95.4475 56.9394L95.5695 56.9743L96.197 58.0201L96.1621 58.1421L95.1163 58.7696L94.9943 58.7348L94.9594 58.8568L95.0814 58.8916L95.7089 59.9375L95.6741 60.0595L94.6108 60.687L94.4888 60.6521L91.0027 54.8129L91.0375 54.6909L92.0834 54.0634L92.1008 54.0459ZM94.9768 50.6993L95.0989 50.7341L95.7264 51.78L95.6915 51.902L92.2403 53.9588L92.1182 53.9239L91.4907 52.8781L91.5256 52.7561L94.9768 50.6993ZM95.9181 55.0221L96.0401 55.0569L96.6676 56.1027L96.6327 56.2248L95.5869 56.8523L95.4649 56.8174L94.8374 55.7716L94.8723 55.6496L95.9181 55.0221ZM96.8942 51.1873L97.0162 51.2222L100.502 57.0614L100.467 57.1834L99.4216 57.8109L99.2996 57.7761L97.2428 54.3248L97.2777 54.2028L97.1557 54.168L97.1208 54.29L96.075 54.9175L95.953 54.8826L95.3255 53.8368L95.3603 53.7148L96.4061 53.0873L96.5282 53.1221L96.563 53.0001L96.441 52.9652L95.8135 51.9194L95.8484 51.7974L96.8942 51.1699V51.1873ZM99.2648 57.8981L99.3868 57.933L100.014 58.9788L99.9794 59.1008L96.5282 61.1576L96.4061 61.1227L95.7786 60.0769L95.8135 59.9549L99.2648 57.8981Z" fill="white"/>
<path d="M100.363 49.2874L100.485 49.3223L102.35 52.8781L102.315 52.9827L102.42 53.0175L102.455 52.913L103.535 52.3378L103.658 52.3726L104.233 53.4533L104.198 53.5579L103.117 54.1331L102.995 54.0982L102.96 54.2028L103.065 54.2377L103.64 55.3184L103.605 55.423L102.525 55.9982L102.42 55.9633L99.265 49.9323L99.2999 49.8278L100.381 49.2525L100.363 49.2874ZM103.413 46.1151L103.518 46.1499L104.093 47.2306L104.058 47.3352L100.503 49.2003L100.398 49.1654L99.8228 48.0847L99.8577 47.9801L103.413 46.1151ZM104.128 50.4553L104.25 50.4901L104.825 51.5708L104.79 51.6754L103.71 52.2506L103.605 52.2157L103.03 51.135L103.065 51.0305L104.146 50.4553H104.128ZM105.296 46.6903L105.401 46.7251L108.555 52.7561L108.521 52.8607L107.44 53.4359L107.318 53.401L105.453 49.8452L105.488 49.7406L105.366 49.7057L105.331 49.8103L104.25 50.3855L104.146 50.3507L103.57 49.27L103.605 49.1654L104.686 48.5902L104.79 48.625L104.825 48.5205L104.721 48.4856L104.146 47.4049L104.18 47.3003L105.261 46.7251L105.296 46.6903ZM107.318 53.523L107.423 53.5579L107.998 54.6386L107.963 54.7432L104.407 56.6082L104.302 56.5734L103.727 55.4927L103.762 55.3881L107.318 53.523Z" fill="white"/>
<path d="M110.855 42.5418L110.96 42.5767L114.376 50.0369L114.341 50.1415L114.446 50.1764L114.481 50.0718L116.869 48.9737L116.973 49.0085L117.479 50.1241L117.444 50.2287L111.256 53.0524L111.151 53.0176L110.646 51.902L110.681 51.7974L113.069 50.6993L113.173 50.7342L113.208 50.6296L113.104 50.5947L110.855 45.6793L110.89 45.5747L110.785 45.5399L110.75 45.6444L109.007 46.4462L108.903 46.4114L108.397 45.2958L108.432 45.1912L110.175 44.3894L110.28 44.4243L110.315 44.3197L110.21 44.2849L109.705 43.1693L109.739 43.0647L110.855 42.5592V42.5418Z" fill="white"/>
<path d="M119.728 38.7943L119.832 38.8466L122.83 46.4812L122.778 46.5858L122.883 46.6381L122.935 46.5335L125.375 45.5748L125.48 45.6271L125.933 46.7601L125.881 46.8646L119.553 49.3572L119.449 49.3049L118.996 48.1719L119.048 48.0674L121.488 47.1087L121.593 47.161L121.645 47.0564L121.54 47.0041L119.553 41.9667L119.606 41.8621L119.501 41.8098L119.449 41.9144L117.653 42.6116L117.549 42.5593L117.096 41.4089L117.148 41.3043L118.943 40.6071L119.048 40.6594L119.1 40.5548L118.996 40.5025L118.542 39.3521L118.595 39.2475L119.745 38.7943H119.728Z" fill="white"/>
<path d="M138.014 32.7982L138.118 32.8505L140.28 40.7639L140.227 40.8685L140.332 40.9208L140.384 40.8162L142.912 40.119L143.016 40.1713L143.347 41.3566L143.295 41.4612L136.724 43.2565L136.619 43.2042L136.288 42.0189L136.34 41.9144L138.868 41.2171L138.972 41.2694L139.025 41.1649L138.92 41.1126L137.491 35.9008L137.543 35.7962L137.438 35.744L137.386 35.8485L135.521 36.354L135.417 36.3017L135.085 35.1165L135.138 35.0119L137.003 34.5064L137.107 34.5587L137.16 34.4541L137.055 34.4018L136.724 33.2165L136.776 33.1119L137.961 32.7808L138.014 32.7982Z" fill="white"/>
<path d="M144.916 32.4844L145.021 32.5541L145.875 36.476L145.805 36.5806L145.91 36.6503L145.979 36.5457L147.182 36.2842L147.287 36.354L147.548 37.5567L147.478 37.6612L146.276 37.9227L146.171 37.853L146.101 37.9576L146.206 38.0273L146.467 39.23L146.398 39.3346L145.195 39.596L145.09 39.5263L143.644 32.8679L143.713 32.7633L144.916 32.5018V32.4844ZM148.716 30.2358L148.82 30.3056L149.082 31.5083L149.012 31.6129L145.09 32.4669L144.986 32.3972L144.724 31.1945L144.794 31.0899L148.716 30.2358ZM150.476 38.4282L150.581 38.4979L150.842 39.7006L150.773 39.8052L146.851 40.6593L146.746 40.5896L146.485 39.3869L146.555 39.2823L150.476 38.4282ZM148.228 34.6283L148.332 34.6981L148.594 35.9008L148.524 36.0053L147.321 36.2668L147.217 36.1971L146.955 34.9944L147.025 34.8898L148.228 34.6283ZM150.372 31.3165L150.476 31.3863L151.923 38.0447L151.853 38.1493L150.651 38.4108L150.546 38.341L149.692 34.4192L149.762 34.3146L149.657 34.2449L149.587 34.3494L148.385 34.6109L148.28 34.5412L148.019 33.3385L148.088 33.2339L149.291 32.9724L149.396 33.0422L149.465 32.9376L149.361 32.8679L149.099 31.6651L149.169 31.5606L150.372 31.2991V31.3165Z" fill="white"/>
<path d="M154.275 30.6019L154.38 30.6717L155.007 34.6284L154.938 34.7155L155.025 34.7853L155.095 34.6807L156.315 34.4889L156.402 34.5587L156.594 35.7788L156.524 35.866L155.304 36.0577L155.217 35.988L155.147 36.0926L155.251 36.1623L155.443 37.3824L155.374 37.487L154.153 37.6787L154.066 37.609L152.986 30.8983L153.055 30.7937L154.258 30.6019H154.275ZM158.18 28.5626L158.267 28.6323L158.459 29.8524L158.389 29.9396L154.415 30.5845L154.328 30.5148L154.136 29.3121L154.206 29.2075L158.162 28.58L158.18 28.5626ZM159.505 36.8246L159.592 36.8944L159.783 38.0971L159.714 38.2016L155.74 38.8291L155.652 38.7594L155.461 37.5393L155.53 37.4521L159.505 36.8072V36.8246ZM157.465 32.9202L157.552 32.9899L157.744 34.2101L157.674 34.2972L156.472 34.4889L156.367 34.4192L156.175 33.1991L156.245 33.1119L157.465 32.9202ZM159.783 29.7304L159.871 29.8001L160.951 36.5109L160.882 36.598L159.661 36.7898L159.574 36.7201L158.929 32.7633L158.999 32.6762L158.894 32.6064L158.825 32.711L157.622 32.9028L157.517 32.833L157.326 31.6129L157.395 31.5258L158.616 31.334L158.703 31.4037L158.772 31.2992L158.668 31.2294L158.476 30.0093L158.546 29.9047L159.766 29.713L159.783 29.7304Z" fill="white"/>
<path d="M166.354 27.5516L166.441 27.6214L167.313 35.7788L167.243 35.866L167.33 35.9357L167.4 35.8486L170.014 35.5697L170.102 35.6394L170.224 36.8595L170.154 36.9467L163.391 37.6613L163.304 37.5916L163.182 36.3715L163.251 36.2843L165.866 36.0054L165.953 36.0752L166.023 35.988L165.936 35.9183L165.361 30.5323L165.43 30.4451L165.343 30.3754L165.273 30.4625L163.356 30.6717L163.269 30.602L163.147 29.3818L163.217 29.2947L165.134 29.0855L165.221 29.1552L165.291 29.0681L165.204 28.9984L165.082 27.7782L165.151 27.6911L166.372 27.5691L166.354 27.5516Z" fill="white"/>
<path d="M173.241 28.3708L173.328 28.4579L173.537 32.4669L173.467 32.5541L173.554 32.6412L173.642 32.5541L174.862 32.4844L174.949 32.5715L175.019 33.7917L174.932 33.8788L173.711 33.9485L173.624 33.8614L173.537 33.9485L173.624 34.0357L173.694 35.2558L173.624 35.343L172.404 35.4127L172.317 35.3255L171.968 28.5276L172.055 28.4405L173.276 28.3708H173.241ZM177.337 26.7672L177.424 26.8543L177.494 28.0744L177.407 28.1616L173.398 28.3708L173.31 28.2836L173.241 27.0635L173.328 26.9763L177.337 26.7672ZM177.773 35.1164L177.86 35.2035L177.93 36.4237L177.86 36.5108L173.851 36.72L173.764 36.6328L173.694 35.4127L173.764 35.3255L177.773 35.1164ZM176.169 31.0028L176.256 31.0899L176.326 32.3101L176.256 32.3972L175.036 32.4669L174.949 32.3798L174.879 31.1596L174.949 31.0725L176.169 31.0028ZM178.801 28.0744L178.888 28.1616L179.237 34.9595L179.15 35.0467L177.93 35.1164L177.842 35.0292L177.633 31.0202L177.72 30.933L177.633 30.8459L177.546 30.933L176.326 31.0028L176.239 30.9156L176.169 29.6955L176.256 29.6083L177.476 29.5386L177.564 29.6258L177.651 29.5386L177.564 29.4515L177.494 28.2313L177.564 28.1442L178.784 28.0744H178.801Z" fill="white"/>
<path d="M185.755 26.6278L185.842 26.7149L185.703 34.9073L185.616 34.9944L185.703 35.0816L185.79 34.9944L188.404 35.0293L188.492 35.1165V36.3366L188.387 36.4237L181.589 36.3192L181.502 36.232V35.0119L181.607 34.9247L184.221 34.9596L184.308 35.0467L184.395 34.9596L184.308 34.8724L184.395 29.469L184.483 29.3818L184.395 29.2947L184.308 29.3818L182.391 29.3469L182.304 29.2598V28.0397L182.408 27.9525L184.326 27.9874L184.413 28.0745L184.5 27.9874L184.413 27.9002V26.6975L184.517 26.6104H185.738L185.755 26.6278Z" fill="white"/>
<path d="M192.326 28.1617L192.396 28.2488L192.187 32.2579L192.1 32.345L192.169 32.4322L192.256 32.345L193.477 32.4147L193.546 32.5019L193.477 33.722L193.389 33.8092L192.169 33.7395L192.082 33.6523L191.995 33.7395L192.065 33.8266L191.995 35.0467L191.908 35.1339L190.688 35.0642L190.601 34.977L190.967 28.1791L191.054 28.092L192.274 28.1617H192.326ZM196.143 35.3431L196.213 35.4302L196.143 36.6504L196.056 36.7375L192.047 36.5283L191.96 36.4412L192.03 35.221L192.117 35.1339L196.126 35.3431H196.143ZM196.579 26.9938L196.649 27.081L196.579 28.3011L196.492 28.3883L192.483 28.1791L192.413 28.092L192.483 26.8718L192.57 26.7847L196.579 26.9938ZM194.976 31.09L195.045 31.1772L194.976 32.3973L194.888 32.4845L193.668 32.4147L193.581 32.3276L193.651 31.1074L193.738 31.0377L194.958 31.1074L194.976 31.09ZM197.904 28.458L197.974 28.5452L197.608 35.3431L197.52 35.4128L196.3 35.3431L196.213 35.2559L196.422 31.2469L196.509 31.1597L196.422 31.0726L196.335 31.1597L195.115 31.09L195.028 31.0029L195.098 29.7827L195.185 29.713L196.405 29.7827L196.475 29.8699L196.562 29.7827L196.492 29.6956L196.562 28.4754L196.649 28.3883L197.869 28.458H197.904Z" fill="white"/>
<path d="M204.772 27.7258L204.841 27.8129L203.97 35.9704L203.883 36.0401L203.952 36.1273L204.039 36.0576L206.654 36.3365L206.724 36.4236L206.584 37.6437L206.497 37.7135L199.734 36.9814L199.664 36.8942L199.804 35.6741L199.891 35.6044L202.506 35.8833L202.575 35.9704L202.662 35.9007L202.593 35.8135L203.168 30.4275L203.255 30.3578L203.185 30.2706L203.098 30.3404L201.181 30.1312L201.111 30.044L201.251 28.8239L201.338 28.7542L203.255 28.9633L203.325 29.0505L203.412 28.9808L203.342 28.8936L203.482 27.6735L203.569 27.6038L204.789 27.7432L204.772 27.7258Z" fill="white"/>
<path d="M214.272 29.0333L214.341 29.1378L213.034 37.2256L212.947 37.2953L213.017 37.3999L213.104 37.3302L215.684 37.7485L215.753 37.8531L215.562 39.0558L215.457 39.1255L208.746 38.0448L208.677 37.9577L208.868 36.7376L208.955 36.6678L211.535 37.0862L211.605 37.1907L211.692 37.121L211.622 37.0164L212.494 31.6827L212.598 31.613L212.529 31.5084L212.442 31.5781L210.542 31.2644L210.472 31.1598L210.664 29.9571L210.768 29.8873L212.668 30.2011L212.738 30.3057L212.842 30.236L212.773 30.1314L212.964 28.9287L213.069 28.8589L214.272 29.0507V29.0333Z" fill="white"/>
<path d="M220.721 31.6303L220.791 31.7349L219.937 35.6568L219.832 35.7265L219.902 35.8311L220.006 35.7614L221.209 36.0228L221.279 36.1274L221.017 37.3301L220.913 37.3998L219.71 37.1384L219.64 37.0338L219.536 37.1035L219.605 37.2081L219.344 38.4108L219.239 38.4805L218.037 38.2191L217.967 38.1145L219.414 31.4734L219.518 31.4037L220.721 31.6652V31.6303ZM223.318 39.3346L223.388 39.4392L223.126 40.6419L223.022 40.7116L219.1 39.8575L219.03 39.753L219.292 38.5502L219.396 38.4805L223.318 39.3346ZM225.113 31.1597L225.183 31.2643L224.922 32.467L224.817 32.5367L220.895 31.6826L220.825 31.578L221.087 30.3753L221.192 30.3056L225.113 31.1597ZM222.865 34.9596L222.935 35.0641L222.673 36.2668L222.569 36.3366L221.366 36.0751L221.296 35.9705L221.558 34.7678L221.662 34.6981L222.865 34.9596ZM226.177 32.8156L226.246 32.9202L224.8 39.5612L224.695 39.6309L223.492 39.3695L223.423 39.2649L224.277 35.343L224.381 35.2733L224.312 35.1687L224.207 35.2384L223.004 34.977L222.935 34.8724L223.196 33.6697L223.301 33.6L224.503 33.8614L224.573 33.966L224.678 33.8963L224.608 33.7917L224.869 32.589L224.974 32.5193L226.177 32.7807V32.8156Z" fill="white"/>
<path d="M239.179 36.4761L239.232 36.5807L237.959 40.398L237.855 40.4503L237.907 40.5548L238.011 40.5026L239.179 40.886L239.232 40.9906L238.848 42.1585L238.743 42.2108L237.576 41.8273L237.523 41.7227L237.419 41.775L237.471 41.8796L237.088 43.0474L236.983 43.0997L235.815 42.7162L235.763 42.6117L237.924 36.1624L238.029 36.1101L239.197 36.4935L239.179 36.4761ZM240.922 44.407L240.975 44.5116L240.591 45.6794L240.487 45.7317L236.669 44.4593L236.617 44.3547L237 43.1869L237.105 43.1346L240.905 44.407H240.922ZM240.94 39.9971L240.992 40.1017L240.609 41.2695L240.504 41.3218L239.336 40.9383L239.284 40.8337L239.667 39.6659L239.772 39.6136L240.94 39.9971ZM243.589 36.4761L243.641 36.5807L243.258 37.7485L243.153 37.8008L239.336 36.5284L239.284 36.4238L239.667 35.256L239.772 35.2037L243.589 36.4761ZM244.461 38.2366L244.513 38.3412L242.352 44.7905L242.247 44.8428L241.079 44.4593L241.027 44.3547L242.299 40.5374L242.404 40.4851L242.352 40.3805L242.247 40.4328L241.079 40.0494L241.027 39.9448L241.41 38.7769L241.515 38.7246L242.683 39.1081L242.735 39.2127L242.84 39.1604L242.787 39.0558L243.171 37.888L243.275 37.8357L244.443 38.2192L244.461 38.2366Z" fill="white"/>
<path d="M251.259 39.3521L251.311 39.4567L248.295 47.0739L248.191 47.1261L248.243 47.2307L248.348 47.1784L250.788 48.1371L250.84 48.2417L250.387 49.3747L250.283 49.427L243.955 46.917L243.903 46.8124L244.356 45.6794L244.461 45.6271L246.901 46.5858L246.953 46.6904L247.058 46.6381L247.006 46.5335L248.993 41.4961L249.097 41.4438L249.045 41.3392L248.94 41.3915L247.145 40.6768L247.093 40.5723L247.546 39.4393L247.651 39.387L249.446 40.1016L249.498 40.2062L249.603 40.1539L249.55 40.0494L250.004 38.9164L250.108 38.8641L251.259 39.3173V39.3521Z" fill="white"/>
<path d="M257.012 43.274L257.047 43.3785L255.373 47.0215L255.269 47.0564L255.303 47.161L255.408 47.1261L256.524 47.6316L256.558 47.7362L256.053 48.8517L255.948 48.8866L254.833 48.3811L254.798 48.2765L254.693 48.3114L254.728 48.416L254.223 49.5315L254.118 49.5664L253.003 49.0609L252.968 48.9563L255.809 42.7685L255.914 42.7336L257.029 43.2391L257.012 43.274ZM257.901 51.3617L257.935 51.4663L257.43 52.5819L257.325 52.6167L253.682 50.9434L253.648 50.8388L254.153 49.7233L254.258 49.6884L257.901 51.3617ZM258.371 46.9692L258.406 47.0738L257.901 48.1894L257.796 48.2242L256.68 47.7187L256.646 47.6142L257.151 46.4986L257.256 46.4637L258.371 46.9692ZM261.387 43.762L261.422 43.8666L260.916 44.9822L260.812 45.017L257.169 43.3437L257.134 43.2391L257.639 42.1235L257.744 42.0887L261.387 43.762ZM262.084 45.6097L262.119 45.7142L259.278 51.9021L259.173 51.9369L258.057 51.4315L258.023 51.3269L259.696 47.6839L259.801 47.649L259.766 47.5444L259.661 47.5793L258.546 47.0738L258.511 46.9692L259.016 45.8537L259.121 45.8188L260.236 46.3243L260.271 46.4289L260.376 46.394L260.341 46.2894L260.846 45.1739L260.951 45.139L262.067 45.6445L262.084 45.6097Z" fill="white"/>
<path d="M273.988 51.9544L274.022 52.0764L271.966 55.5276L271.844 55.5625L271.878 55.6845L272 55.6496L273.046 56.2771L273.081 56.3991L272.454 57.445L272.332 57.4798L271.286 56.8523L271.251 56.7303L271.129 56.7652L271.164 56.8872L270.536 57.933L270.414 57.9679L269.368 57.3404L269.334 57.2184L272.82 51.3792L272.942 51.3443L273.988 51.9718V51.9544ZM274.005 60.077L274.04 60.199L273.412 61.2448L273.29 61.2797L269.839 59.2229L269.804 59.1009L270.432 58.055L270.554 58.0202L274.005 60.077ZM274.946 55.7716L274.981 55.8937L274.354 56.9395L274.232 56.9744L273.186 56.3469L273.151 56.2248L273.778 55.179L273.9 55.1442L274.946 55.7716ZM278.293 52.8956L278.328 53.0176L277.7 54.0635L277.578 54.0983L274.127 52.0415L274.092 51.9195L274.72 50.8737L274.842 50.8388L278.293 52.8956ZM278.781 54.813L278.816 54.935L275.33 60.7742L275.208 60.8091L274.162 60.1816L274.127 60.0596L276.184 56.6083L276.306 56.5735L276.271 56.4514L276.149 56.4863L275.103 55.8588L275.068 55.7368L275.696 54.691L275.818 54.6561L276.864 55.2836L276.898 55.4056L277.02 55.3707L276.986 55.2487L277.613 54.2029L277.735 54.168L278.781 54.7955V54.813Z" fill="white"/>
<path d="M282.129 56.9918V57.1138L279.915 60.443H279.793L279.811 60.5824H279.933L280.944 61.2448V61.3668L280.281 62.3778H280.159L279.148 61.7154V61.5934L279.009 61.6108V61.7329L278.346 62.7438H278.224L277.214 62.0815V61.9595L280.996 56.312H281.118L282.129 56.9743V56.9918ZM281.711 65.097V65.219L281.048 66.2299H280.926L277.597 64.0163V63.8942L278.259 62.8833H278.381L281.711 65.097ZM282.896 60.8613V60.9833L282.233 61.9943H282.111L281.101 61.332V61.2099L281.763 60.199H281.885L282.896 60.8613ZM286.765 60.0944V60.2164L282.983 65.8639H282.861L281.85 65.2015V65.0795L284.064 61.7503H284.186L284.168 61.6108H284.046L283.035 60.9485V60.8265L283.698 59.8155H283.82L284.831 60.4779V60.5999L284.97 60.5824V60.4604L285.632 59.4495H285.754L286.765 60.1118V60.0944ZM286.382 58.1596V58.2816L285.72 59.2926H285.598L282.268 57.0789V56.9569L282.931 55.9459H283.053L286.382 58.1596Z" fill="white"/>
<path d="M293.039 63.0054V63.1274L288.124 69.6813H288.002V69.8207H288.124L290.215 71.3895V71.5115L289.501 72.4876H289.379L283.94 68.4088V68.2868L284.655 67.3107H284.777L286.869 68.8795V69.0015H287.008V68.8795L290.25 64.5567H290.372V64.4172H290.25L288.716 63.2668V63.1448L289.448 62.1687H289.57L291.104 63.3191V63.4411H291.244V63.3191L291.958 62.343H292.08L293.057 63.0577L293.039 63.0054Z" fill="white"/>
<path d="M307.699 75.4159V75.5379L302.103 81.5166H301.981V81.6386H302.103L304.021 83.434V83.556L303.184 84.4449H303.062L298.094 79.791V79.669L298.931 78.78H299.053L300.97 80.5753V80.6974H301.092V80.5753L304.788 76.6186H304.91V76.4966H304.788L303.376 75.1893V75.0673L304.212 74.1783H304.334L305.746 75.4856V75.6076H305.868V75.4856L306.705 74.5967H306.827L307.716 75.4333L307.699 75.4159Z" fill="white"/>
<path d="M309.442 88.9768V89.0988L308.553 89.9529H308.431L305.659 87.0595V86.9375L306.548 86.0834H306.67L309.442 88.9768ZM311.586 81.1331V81.2551L308.692 84.044H308.57V84.166H308.692L309.546 85.055V85.177L308.657 86.0311H308.535L307.681 85.1421V85.0201H307.559V85.1421L306.67 85.9962H306.548L305.694 85.1073V84.9852L310.61 80.279H310.732L311.586 81.1679V81.1331ZM315.438 85.1595V85.2816L310.523 89.9878H310.401L309.546 89.0988V88.9768L312.44 86.1879H312.562V86.0659H312.44L311.586 85.177V85.055L312.475 84.2009H312.597L313.451 85.0898V85.2118H313.573V85.0898L314.462 84.2357H314.584L315.438 85.1247V85.1595ZM311.499 85.0898V85.2118L310.61 86.0659H310.488L309.634 85.177V85.055L310.523 84.2009H310.645L311.499 85.0898ZM315.473 83.1899V83.3119L314.584 84.166H314.462L311.673 81.2725V81.1505L312.562 80.2964H312.684L315.473 83.1899Z" fill="white"/>
<path d="M315.543 95.8619V95.9839L314.601 96.7857H314.479L311.865 93.7354V93.6134L312.806 92.8115H312.928L315.543 95.8619ZM318.105 88.1402V88.2622L315.055 90.8768H314.933V90.9813H315.055L315.856 91.9226V92.0446L314.915 92.8464H314.793L313.991 91.9052V91.7831H313.887V91.9052L312.946 92.707H312.824L312.022 91.7657V91.6437L317.181 87.1989H317.303L318.105 88.1402ZM321.731 92.3584V92.4804L316.571 96.9252H316.449L315.647 95.9839V95.8619L318.698 93.2473H318.82V93.1427H318.698L317.896 92.2015V92.0795L318.837 91.2777H318.959L319.761 92.2189V92.3409H319.865V92.2189L320.807 91.4171H320.929L321.731 92.3584ZM317.809 92.062V92.184L316.867 92.9859H316.745L315.944 92.0446V91.9226L316.885 91.1208H317.007L317.809 92.062ZM321.887 90.3887V90.5107L320.946 91.3125H320.824L318.21 88.2622V88.1402L319.151 87.3384H319.273L321.887 90.3887Z" fill="white"/>
<path d="M327.047 96.8206V96.9426L320.545 101.963H320.423V102.067H320.545L322.149 104.159V104.281L321.155 105.03H321.033L316.868 99.6269V99.5049L317.861 98.7554H317.983L319.587 100.847V100.969H319.691V100.847L323.979 97.5353H324.101V97.4307H323.979L322.794 95.8968V95.7748L323.787 95.0253H323.909L325.077 96.5592V96.6812H325.182V96.5592L326.175 95.8096H326.297L327.047 96.8032V96.8206Z" fill="white"/>
<path d="M326.593 110.486V110.608L325.565 111.305H325.443L323.159 107.976V107.854L324.188 107.157H324.31L326.593 110.486ZM329.94 103.078V103.2L326.611 105.484H326.489L326.471 105.571H326.593L327.29 106.599V106.721L326.262 107.418H326.14L325.443 106.39V106.268L325.356 106.251V106.373L324.327 107.07H324.205L323.508 106.041V105.919L329.121 102.05H329.243L329.94 103.078ZM333.112 107.68V107.802L327.5 111.671H327.378L326.68 110.643V110.521L330.01 108.238H330.132L330.149 108.15H330.027L329.33 107.122V107L330.358 106.303H330.48L331.177 107.331V107.453L331.265 107.471V107.349L332.293 106.651H332.415L333.112 107.68ZM329.243 106.965V107.087L328.214 107.784H328.092L327.395 106.756V106.634L328.423 105.937H328.545L329.243 106.965ZM333.478 105.728V105.85L332.45 106.547H332.328L330.045 103.218V103.096L331.073 102.398H331.195L333.478 105.728Z" fill="white"/>
<path d="M342.699 121.014L342.664 121.119L335.465 125.023L335.361 124.988L335.326 125.093L335.43 125.128L336.685 127.429L336.651 127.533L335.57 128.126L335.465 128.091L332.223 122.112L332.258 122.008L333.339 121.415L333.443 121.45L334.698 123.751L334.663 123.855L334.785 123.89L334.82 123.786L339.579 121.206L339.701 121.241L339.736 121.136L339.614 121.101L338.69 119.41L338.725 119.306L339.805 118.713L339.928 118.748L340.851 120.439L340.816 120.543L340.938 120.578L340.973 120.474L342.054 119.881L342.176 119.916L342.769 120.997L342.699 121.014Z" fill="white"/>
<path d="M340.051 134.436L340.016 134.54L338.9 135.063L338.796 135.028L337.07 131.403L337.105 131.298L338.22 130.775L338.325 130.81L340.051 134.436ZM344.565 127.673L344.53 127.777L340.905 129.503L340.8 129.468L340.765 129.572L340.87 129.607L341.393 130.723L341.358 130.827L340.242 131.35L340.138 131.315L339.615 130.2L339.65 130.095L339.545 130.06L339.51 130.165L338.395 130.688L338.29 130.653L337.767 129.538L337.802 129.433L343.955 126.522L344.06 126.557L344.583 127.673H344.565ZM346.953 132.71L346.918 132.815L340.765 135.743L340.661 135.708L340.138 134.592L340.173 134.488L343.798 132.762L343.903 132.797L343.938 132.693L343.833 132.658L343.31 131.542L343.345 131.438L344.46 130.915L344.565 130.949L345.088 132.048L345.053 132.152L345.158 132.187L345.193 132.082L346.308 131.56L346.413 131.594L346.936 132.693L346.953 132.71ZM343.24 131.385L343.205 131.49L342.09 132.013L341.985 131.978L341.462 130.88L341.497 130.775L342.613 130.252L342.717 130.287L343.24 131.403V131.385ZM347.615 130.845L347.581 130.949L346.465 131.472L346.36 131.438L344.635 127.812L344.67 127.707L345.785 127.184L345.89 127.219L347.615 130.845Z" fill="white"/>
<path d="M350.892 138.427L350.84 138.532L343.258 141.652L343.153 141.6L343.101 141.704L343.206 141.757L344.199 144.179L344.147 144.284L343.014 144.755L342.909 144.702L340.33 138.41L340.382 138.305L341.515 137.835L341.619 137.887L342.613 140.31L342.561 140.414L342.665 140.467L342.718 140.362L347.72 138.305L347.825 138.358L347.877 138.253L347.772 138.201L347.04 136.423L347.093 136.318L348.226 135.848L348.33 135.9L349.062 137.678L349.01 137.782L349.115 137.835L349.167 137.73L350.3 137.26L350.404 137.312L350.875 138.445L350.892 138.427Z" fill="white"/>
<path d="M346.814 151.5L346.761 151.605L345.594 152.006L345.489 151.953L344.164 148.153L344.217 148.049L345.384 147.648L345.489 147.7L346.814 151.5ZM352.025 145.26L351.973 145.365L348.173 146.689L348.069 146.637L348.016 146.742L348.121 146.794L348.522 147.962L348.47 148.066L347.319 148.467L347.215 148.415L346.814 147.247L346.866 147.142L346.761 147.09L346.709 147.195L345.559 147.596L345.454 147.543L345.053 146.375L345.106 146.271L351.537 144.04L351.642 144.092L352.043 145.26H352.025ZM353.856 150.524L353.803 150.629L347.372 152.86L347.267 152.807L346.866 151.657L346.918 151.552L350.718 150.228L350.823 150.28L350.875 150.175L350.77 150.123L350.37 148.973L350.422 148.868L351.59 148.467L351.694 148.519L352.095 149.687L352.043 149.792L352.147 149.844L352.2 149.74L353.368 149.339L353.472 149.391L353.873 150.559L353.856 150.524ZM350.317 148.798L350.265 148.903L349.097 149.304L348.993 149.252L348.592 148.084L348.644 147.979L349.812 147.578L349.916 147.63L350.317 148.798ZM354.727 148.746L354.675 148.851L353.507 149.252L353.402 149.199L352.078 145.399L352.13 145.295L353.28 144.894L353.385 144.946L354.71 148.746H354.727Z" fill="white"/>
<path d="M357.149 156.625L357.097 156.729L349.218 158.995L349.113 158.943L349.061 159.047L349.166 159.1L349.898 161.61L349.845 161.714L348.66 162.063L348.556 162.011L346.673 155.474L346.725 155.37L347.911 155.021L348.015 155.073L348.747 157.601L348.695 157.705L348.8 157.758L348.852 157.653L354.046 156.154L354.151 156.206L354.203 156.102L354.098 156.049L353.558 154.202L353.61 154.097L354.796 153.766L354.9 153.818L355.441 155.666L355.388 155.771L355.493 155.823L355.545 155.718L356.731 155.37L356.835 155.422L357.184 156.607L357.149 156.625Z" fill="white"/>
<path d="M351.694 169.192L351.624 169.297L350.421 169.576L350.317 169.506L349.41 165.584L349.48 165.479L350.683 165.2L350.787 165.27L351.694 169.192ZM357.55 163.545L357.481 163.649L353.559 164.556L353.454 164.486L353.384 164.59L353.489 164.66L353.768 165.863L353.698 165.967L352.496 166.246L352.391 166.177L352.112 164.974L352.182 164.869L352.077 164.8L352.007 164.904L350.805 165.183L350.7 165.113L350.421 163.911L350.491 163.806L357.115 162.272L357.219 162.342L357.498 163.545H357.55ZM358.805 168.983L358.736 169.087L352.112 170.621L352.007 170.552L351.729 169.349L351.798 169.244L355.72 168.338L355.825 168.408L355.895 168.303L355.79 168.233L355.511 167.031L355.581 166.926L356.783 166.647L356.888 166.717L357.167 167.92L357.097 168.024L357.202 168.094L357.272 167.989L358.474 167.71L358.579 167.78L358.858 168.983H358.805ZM355.459 166.891L355.389 166.996L354.186 167.275L354.082 167.205L353.803 166.002L353.873 165.898L355.075 165.619L355.18 165.689L355.459 166.891ZM359.851 167.31L359.782 167.414L358.579 167.693L358.474 167.623L357.568 163.701L357.638 163.597L358.84 163.318L358.945 163.388L359.851 167.31Z" fill="white"/>
</g>
</g>
</g>
<defs>
<linearGradient id="paint0_linear_1_164" x1="184" y1="268" x2="184" y2="197" gradientUnits="userSpaceOnUse">
<stop stop-color="#D9D9D9"/>
<stop offset="1" stop-color="#737373" stop-opacity="0"/>
</linearGradient>
<radialGradient id="paint1_radial_1_164" cx="0" cy="0" r="1" gradientUnits="userSpaceOnUse" gradientTransform="translate(76 292) rotate(-45) scale(152.735)">
<stop stop-color="#D9D9D9"/>
<stop offset="1" stop-color="#737373" stop-opacity="0"/>
</radialGradient>
<radialGradient id="paint2_radial_1_164" cx="0" cy="0" r="1" gradientUnits="userSpaceOnUse" gradientTransform="translate(292 292) rotate(-135) scale(152.735)">
<stop stop-color="#D9D9D9"/>
<stop offset="1" stop-color="#737373" stop-opacity="0"/>
</radialGradient>
<linearGradient id="paint3_linear_1_164" x1="185" y1="120" x2="185" y2="172" gradientUnits="userSpaceOnUse">
<stop stop-color="#D9D9D9"/>
<stop offset="1" stop-color="#737373" stop-opacity="0"/>
</linearGradient>
<radialGradient id="paint4_radial_1_164" cx="0" cy="0" r="1" gradientUnits="userSpaceOnUse" gradientTransform="translate(185 32) rotate(90) scale(172 1050)">
<stop stop-color="#D9D9D9"/>
<stop offset="1" stop-color="#737373" stop-opacity="0"/>
</radialGradient>
<clipPath id="clip0_1_164">
<rect width="368" height="368" fill="white" transform="matrix(1 0 0 -1 0 368)"/>
</clipPath>
<clipPath id="clip1_1_164">
<rect width="352" height="145" fill="white" transform="translate(9 27)"/>
</clipPath>
</defs>
</svg>
